<svg viewBox="0 0 56.55 56.56" xmlns="http://www.w3.org/2000/svg"><g fill="#fff"><path d="m56.55 19.1c-.09.34-.17.67-.27 1a6.15 6.15 0 0 1 -5.73 4.39c-4.16 0-8.32.05-12.48 0a6.13 6.13 0 0 1 -6-6.05q-.06-6.18 0-12.37a6.15 6.15 0 0 1 6.06-6q6.15-.07 12.3-.07a6.16 6.16 0 0 1 6 5.14 1 1 0 0 0 .1.27z"/><path d="m5.44 56.56a15.66 15.66 0 0 1 -1.93-.66 5.9 5.9 0 0 1 -3.46-5.4c-.05-4.12-.05-8.25-.05-12.37a6.13 6.13 0 0 1 6.05-6.06q6.18-.06 12.36 0a6.13 6.13 0 0 1 6.05 6.06c.05 4.1 0 8.21 0 12.31a6.17 6.17 0 0 1 -5.14 6 1.28 1.28 0 0 0 -.27.11z"/><path d="m43.12 56.56c-.64-.14-1.3-.24-1.94-.41a12.25 12.25 0 1 1 15.26-13.41 2.85 2.85 0 0 0 .11.39v2.35a3 3 0 0 0 -.11.4 12 12 0 0 1 -7.85 9.88 24.87 24.87 0 0 1 -3.11.8z"/><path d="m12.27 0h5.83a6.21 6.21 0 0 1 6.42 6.43v11.66a6.22 6.22 0 0 1 -6.39 6.41q-5.85 0-11.72 0a6.21 6.21 0 0 1 -6.41-6.39c0-3.9 0-7.81 0-11.72a6.2 6.2 0 0 1 6.38-6.39z"/></g></svg>