<svg viewBox="0 0 222.52 201.23" xmlns="http://www.w3.org/2000/svg" xmlns:xlink="http://www.w3.org/1999/xlink"><linearGradient id="a" gradientUnits="userSpaceOnUse" x2="222.52" y1="100.61" y2="100.61"><stop offset="0" stop-color="#39b54a"/><stop offset=".5" stop-color="#37b349"/><stop offset=".5" stop-color="#107d3c"/><stop offset=".5" stop-color="#006837"/></linearGradient><path d="m111.5 25a65.52 65.52 0 0 0 -22.63-18.29l-.31-.15a58.4 58.4 0 0 0 -47.41-1.32 66 66 0 0 0 -33.06 29.36 67 67 0 0 0 -7.48 41.15 123.49 123.49 0 0 0 6.45 26.25c11.15 30.46 31.46 48.28 47.87 62.66a232.5 232.5 0 0 0 56.57 36.56 204.5 204.5 0 0 0 49.6-29.59c15.27-12.37 43.05-35.48 55.7-74.85a133.93 133.93 0 0 0 4.88-20.74 68.83 68.83 0 0 0 -4.76-38 62.34 62.34 0 0 0 -17.09-23 65.3 65.3 0 0 0 -37-14.79 56 56 0 0 0 -51.33 24.75z" fill="url(#a)"/><path d="m156.27 99.84h-46.51l-11.31-23.07a7.27 7.27 0 0 0 -13.32 0l-21.5 43.08-21.32-43.08a7 7 0 0 0 -12.62 0l-12.19 23.5-11.1-.1c.61 2 1.37 4.19 2.31 6.49s2.07 4.63 3.12 6.58c5.41 0 9.46 0 11.33.09a4.34 4.34 0 0 0 2.18-.44 4.11 4.11 0 0 0 1.74-1.74l8.7-17 21.28 43.08a7.43 7.43 0 0 0 13.1 0l22.19-43.3 3.91 8.52c.54 1.2 3.13 6.83 4 8.17s1.4 3 4.79 3l51.2.11z" fill="#fff"/><path d="m158.15 112.79a2.14 2.14 0 0 1 -1.3.87 2.25 2.25 0 0 1 -2.18-.87c-5.57-6.85-9.85-12.94-12.93-17.61-7.26-11-9.07-16.21-10.09-19-1.88-5.06-2.91-10.22-2.05-15.65a27 27 0 0 1 9.8-17.22 27.5 27.5 0 0 1 40.26 6c4.78 7.1 5.85 14.89 3.54 23.15a57.87 57.87 0 0 1 -6.84 15.54 201.91 201.91 0 0 1 -18.21 24.79zm-1.32-34.25a13.88 13.88 0 1 0 -13.83-13.86 13.9 13.9 0 0 0 13.83 13.86z" fill="#c1c1c1"/></svg>