<svg enable-background="new 0 0 1125 2436" viewBox="0 0 1125 2436" xmlns="http://www.w3.org/2000/svg"><path d="m212.72 1813.45-56.21-108.4c-5.41-10.74-16.21-17.7-28.1-18.07-12.6-.39-24.39 6.67-30.14 18.07l-98.33 198.73-.08-.16v98.52h.08c12.64.04 24.32-6.92 30.32-18.07 32.72-66.24 65.44-132.49 98.16-198.73 13.38 26.1 26.76 52.19 40.15 78.29.77 1.48 3.09 5.49 8.03 8.03 4.27 2.2 8.39 2.06 10.04 2.01 8.61-.27 27.08-.29 51.75-.46 4.99-9.05 10.06-19.16 14.89-30.31 4.49-10.36 8.19-20.24 11.25-29.45z" fill="#39b54a"/></svg>