<svg viewBox="0 0 444.41 445.17" xmlns="http://www.w3.org/2000/svg"><path d="m401.37 445.17c-13.43-2-22.65-10.15-31.35-20q-67.72-76.32-136.02-152.17c-1-1.06-2-2.09-3.08-3.28-6.86 7-13.61 13.83-20.6 20.95-1.65-1.55-2.8-2.57-3.88-3.65-50.64-50.68-101.1-101.56-152.08-151.92-24.1-23.81-31.8-52.57-28.74-85.18 1.51-16.1 6.16-31.44 12.19-46.4.96-2.37 2.19-2.95 4.68-3.29 8.93-1.23 15.07 2.32 21.41 8.68q183.2 183.8 366.86 367.09c7 7 12.26 14.93 13.37 25.09 2.29 20.94-9.8 38.14-30.39 43.16-.95.23-1.87.59-2.81.89z" fill="#39b54a"/><g fill="#006837"><path d="m0 402.6c1.55-13.71 10-23.12 19.33-32.34q56.57-56.11 112.72-112.62c1.22-1.22 2.24-2.66 3-3.54l56.35 56.44a12.13 12.13 0 0 0 -3.53 2q-58.74 58.59-117.3 117.3c-8.35 8.39-17.59 14.5-29.85 14.78a5.92 5.92 0 0 0 -1.63.55h-.86a17.72 17.72 0 0 0 -2.87-.78 38.16 38.16 0 0 1 -26.36-14.06c-5.3-6.32-7.48-13.81-9-21.65z"/><path d="m351.82 1.27 17.72 17.73-69.41 69.43 18.74 18.71c22.76-22.78 46.13-46.14 69.29-69.31l18.45 18.51c-23 23-46.41 46.41-69.48 69.48l18.77 18.85 69.75-69.77 18.14 18.42-2.83 3c-6.7 7.06-29 28.12-85.61 85.71-13.34 13.57-29.07 21.09-47.92 22.4a4.79 4.79 0 0 0 -1.72.19c-6.31 3.27-10-.22-14.26-4.54-16.37-16.78-33-33.28-49.72-49.76-2.42-2.39-3.18-4.36-2.18-7.86 1.42-4.95 1.66-10.24 2.55-15.36a62.83 62.83 0 0 1 17.77-34.1q45.18-45.4 90.56-90.6a14.27 14.27 0 0 1 1.39-1.13z"/></g></svg>