<svg enable-background="new 0 0 1125 2436" viewBox="0 0 1125 2436" xmlns="http://www.w3.org/2000/svg" xmlns:xlink="http://www.w3.org/1999/xlink"><linearGradient id="a" gradientUnits="userSpaceOnUse" x1="-49.501446" x2="1174.11377" y1="453.767395" y2="453.767395"><stop offset=".0004547" stop-color="#39b54a"/><stop offset=".5" stop-color="#37b349"/><stop offset=".5" stop-color="#107d3c"/><stop offset=".5" stop-color="#006837"/></linearGradient><path d="m-.4169617 0v388.2203979c62.9238892 151.6199341 167.5722657 243.4224854 252.956543 318.3099976 65.7322388 57.6514893 168.2036743 135.388916 311.0782166 201.0043945 123.866333-52.0438843 214.0471191-115.1126099 272.791626-162.7178345 77.5675049-62.8589478 213.8887939-176.1332397 289.0577393-363.7954102v-381.0215453z" fill="url(#a)"/><path d="m554.0461426 349.9868774c-20.7156982-42.2747803-41.4313965-84.5495605-62.1470642-126.8241577-6.348999-14.3032837-20.4244385-23.6668091-35.9622803-23.9291382-16.0171509-.2704468-30.7660522 9.1783447-37.3189697 23.9291382l-118.2201538 236.8980103-117.2155762-236.8980103c-6.8571167-13.579895-20.9156494-22.0038452-35.930603-21.5361938-14.171814.4413452-27.0543213 8.7370605-33.5007324 21.5361938l-67.0014649 129.2171021h-47.1662598v37.7441406c5.4107666 12.2495117 11.0350952 23.4310303 16.5895996 33.4979248 29.4017944.2006836 51.4223022.2190552 61.6845093.5452271 1.9683228.0625 6.8705444.2320557 11.9645386-2.3929443 5.8840942-3.0321655 8.6564331-7.8077393 9.5715942-9.5716553 15.9528198-31.1077881 31.9055786-62.2156372 47.8582153-93.3234253 39.0026245 78.9660034 78.005127 157.9320068 117.0077515 236.8980103 7.1470337 13.2826538 21.0706177 21.5812988 36.1384277 21.5361938 14.980957-.0448608 28.7880859-8.3303223 35.8936768-21.5361938l122.0383911-238.2908936c7.1672974 15.6308594 14.3346558 31.2615967 21.5018311 46.8924561 2.9584351 6.5991821 17.1937866 37.5237427 22.1016846 44.8857422 4.7858276 7.178772 7.7099609 16.7503662 26.321991 16.7503662l281.5438232.6080322v-76.6359253h-255.7529297z" fill="#fff"/><path d="m820.1902466 421.2289734c-.6087646.8519287-2.9692383 3.9393005-7.178772 4.7858276-4.3615112.8771973-8.9939575-.9962158-11.9645386-4.7858276-30.6633911-37.6573486-54.1668701-71.1485901-71.0945435-96.8540955-39.9538574-60.6719055-49.8901978-89.1152191-55.5143433-104.2723846-10.312561-27.7926025-16.0090332-56.1872864-11.2750244-86.058197 6.0861206-38.4031067 23.9212036-70.214386 53.8829346-94.65802 33.9723511-27.7155552 73.2226562-38.8372383 116.7466431-32.755722 44.506897 6.2188044 79.7244263 28.46772 104.6792603 65.5916977 26.2658081 39.0742111 32.1195068 81.9276505 19.4647217 127.3132553-10.1460571 36.3882446-23.8480225 63.1017303-37.6088257 85.3038483-21.6176758 34.8784484-53.9544067 82.3428649-100.1375122 136.3896178zm-7.3030396-188.3473053c43.3270874-.0539246 78.3410645-36.6082764 75.9936523-80.5553741-2.0032349-37.5037537-31.7645264-68.3347626-69.1633301-71.7810287-44.8951416-4.1370544-83.1255493 31.8294144-82.9972534 76.1401443.1217652 42.0394592 34.317566 76.2483825 76.1669312 76.1962585z" fill="#c1c1c1"/></svg>