<svg width="450" height="400" xmlns="http://www.w3.org/2000/svg" enable-background="new 0 0 1125 2436">
 <g id="Layer_1">
  <title>Layer 1</title>
  <g>
   <path fill="#39b54a" d="m361.61035,169.89172l-56.20624,-108.39795c-5.40784,-10.73682 -16.21472,-17.69593 -28.10327,-18.06616c-12.5957,-0.39234 -24.38916,6.67431 -30.14148,18.06616l-98.32996,198.72949l-99.17285,-198.72949c-5.49707,-12.37403 -17.86963,-20.30054 -31.30615,-20.07349c-6.67981,0.11255 -13.0249,2.24732 -18.3504,5.90393l0,128.93762c5.44763,-11.88049 10.89532,-23.76123 16.34308,-35.6416l102.37573,199.89783c5.96069,11.07812 17.54321,18.02869 30.11059,18.06628c12.64014,0.03785 24.32032,-6.9237 30.3158,-18.06628c32.71863,-66.24316 65.43713,-132.48633 98.15564,-198.72937c13.38244,26.0957 26.76489,52.19141 40.14746,78.28735c0.76758,1.47962 3.09326,5.48584 8.02942,8.02942c4.27331,2.20203 8.38562,2.05969 10.03686,2.00733c8.60877,-0.27356 27.0813,-0.28894 51.74598,-0.4574c4.99316,-9.04932 10.05627,-19.15845 14.89105,-30.30933c4.49219,-10.36035 8.18951,-20.24096 11.24646,-29.45434l-51.78772,0z"/>
  </g>
 </g>

</svg>