<svg enable-background="new 0 0 1125 2436" viewBox="0 0 1125 2436" xmlns="http://www.w3.org/2000/svg"><path d="m361.143158 1813.2197266-56.2062378-108.3979492c-5.4078369-10.7368164-16.2147217-17.6959229-28.1032715-18.0661621-12.5957031-.392334-24.3891602 6.6743164-30.1414795 18.0661621l-98.3299561 198.7294922-99.1728516-198.7294922c-5.4970703-12.3740234-17.8696289-20.3005371-31.3061523-20.0734863-6.6798096.1125488-13.0249023 2.2473145-18.3504028 5.9039307v128.9376221c5.4476318-11.8804932 10.8953247-23.7612305 16.3430786-35.6416016l102.3757324 199.8978271c5.9606934 11.078125 17.5432129 18.0286865 30.1105957 18.0662842 12.6401367.0378418 24.3203125-6.9237061 30.3157959-18.0662842 32.7186279-66.2431641 65.4371338-132.4863281 98.1556396-198.7293701 13.3824463 26.0957031 26.7648926 52.1914062 40.1474609 78.2873535.7675781 1.4796143 3.0932617 5.4858398 8.0294189 8.0294189 4.2733154 2.2020264 8.3856201 2.0596924 10.0368652 2.0073242 8.6087646-.2735596 27.0812988-.2889404 51.7459717-.4573975 4.9931641-9.0493164 10.0562744-19.1584473 14.8910522-30.3093262 4.4921875-10.3603516 8.1895142-20.2409668 11.24646-29.4543457h-51.7877195z" fill="#39b54a"/></svg>