<svg viewBox="0 0 451.48 444.47" xmlns="http://www.w3.org/2000/svg"><path d="m0 121.19c3.18-8.48 8.21-15.1 17.67-17a32.05 32.05 0 0 1 6.42-.53q49.94-.06 99.87 0c15.45 0 24.56 9.68 24 25.6-.81 25-.54 50 0 75 .35 15.85-8.77 25.18-24.52 25.19-31.9 0-63.81-.35-95.71.16-13.73.22-23.16-4.54-27.78-17.74z" fill="#39b54a"/><g fill="#006837"><path d="m240.32 0a38 38 0 0 1 20.4 9.07c11 9.82 17.51 28.27 9.08 44.74a37 37 0 0 1 -69.94-16.41c-.16-19.79 15.67-32.79 28-36.31a31.19 31.19 0 0 1 6.04-1.09z"/><path d="m340.43 206.35c1.87 20.54 6.77 39.28 19.07 55.35a54.25 54.25 0 0 0 10.63 10.17c15.46 11.51 21.9 26.52 18.54 45.6a24.29 24.29 0 0 0 -.24 2.5c7.22 1.27 14.42 1.66 21 3.86 24.42 8.13 38.1 25.51 41.82 50.85.75 5.07-.38 6.73-6 10.11 6.89 30.63-12.78 52.41-32.72 57.79-13.49 3.65-26.27 2.09-38.2-5.3s-18.79-18.29-21.78-32c-9.65 8.78-14 7.55-18.17-4.82-.59-1.75-1.1-3.52-1.43-4.58-3.95.58-7.65 1.59-11.35 1.6q-58.29.17-116.57 0c-3.93 0-5.72.47-6.47 5.13-3.65 22.71-23.95 39.16-47.12 38.85a47.09 47.09 0 0 1 -46.14-40.09c-.16-1.06-.42-2.1-.63-3.18-3.54-.67-7.09-1-10.39-2-14.1-4.53-22.06-18.16-20.78-34.8 1.2-15.49 6.54-29.71 13.22-43.49 3.15-6.5 6.71-12.82 10.3-19.09.7-1.22 2.41-2.64 3.65-2.64 36.69-.14 73.37-.12 110.66-.12-4.65 16.16-1.57 30.18 11.1 42.88.47-6.61.91-12.17 1.24-17.73q2.31-38.55 4.56-77.09c.39-6.55-2-9.37-8.51-10.08q-17-1.85-34-3.74c-13.46-1.52-22.23-13.39-19.48-26.75q10.26-50 20.79-99.93c3.12-14.81 15.37-23.72 30-22.16 13.29 1.42 23.17 13.24 23.48 27.74a9.37 9.37 0 0 0 2.29 5.58c13 14.45 30 22.14 47.84 28.63a66.84 66.84 0 0 0 25.73 4.33c12-.42 24.05-.15 36.08-.09 15.35.07 24.14 8.82 24.21 24 0 4.47.11 9-.06 13.41a21.7 21.7 0 0 1 -21.34 21.24c-4.69.17-9.45.06-14.83.06zm-110.49-49.24c-1.85 8-3.62 15.31-5.18 22.65-1.14 5.38.38 8 5.58 10q16 6 32 12a26.08 26.08 0 0 1 16.9 27.08c-3.05 30.31-6.4 60.59-9.61 90.88-.92 8.66-1.77 17.32-2.66 26.07h28.4v-161.79a129.47 129.47 0 0 1 -65.43-26.89zm182.65 221.14c-14.65-.34-28.26 3.42-41 10.52-3.66 2-5.19 4.83-5 9 1.07 19.26 17.83 33.66 36.6 31.32a32.64 32.64 0 0 0 27.9-39.88c-2.08-9.27-3.51-10.5-13-11-1.8-.04-3.65.04-5.5.04zm-292.27 19.55c-.33 15.52 15.53 29.42 32.74 28.94 16.47-.46 31.81-14.79 30.73-28.94z"/><path d="m214.29 281.24h-5.29c-36.83 0-73.66-.06-110.5.09a8.57 8.57 0 0 1 -7.72-3.76 44.45 44.45 0 0 1 -9.27-25.64c-.19-5.76 2.56-8.7 8.26-8.71q58.26-.08 116.51 0c4.7 0 7.8 2.33 7.93 6.66.29 10.27.08 20.56.08 31.36z"/></g></svg>