<svg viewBox="0 0 461.88 511.04" xmlns="http://www.w3.org/2000/svg"><path d="m352.79 511c-3.06-1.19-6.28-2.08-9.16-3.62-9.88-5.3-16.43-13.48-16.9-24.76-.67-16.23-.17-32.51-.17-49.45a136.05 136.05 0 0 0 63.51 0v18.89 24.92c-.12 17.44-8.3 28.22-25.07 33.21a5.15 5.15 0 0 0 -1.22.78z" fill="#006837"/><path d="m365.41 169.81c-23.67-.81-45.15 3.4-65.38 13.37q-45 22.17-64.75 68.3c-1.74 4.06-3.69 5.18-8 5.17q-89.3-.24-178.59-.1c-9.39 0-15.9 5.52-16.48 13.79a14.89 14.89 0 0 0 13.65 16.07c1.65.15 3.32.07 5 .07h174.28v33.94h-176.28c-9.67 0-16.24 5.63-16.66 14.14a14.88 14.88 0 0 0 13.52 15.71c1.82.18 3.66.09 5.49.09q88.29 0 176.59-.1c4.15 0 5.8 1.4 7.56 5.08 4.63 9.69 10 19 15.39 29h-5.29q-98.28 0-196.55 0c-9.88 0-16.54 5.86-16.73 14.59a14.89 14.89 0 0 0 14 15.29c1.66.12 3.33.05 5 .05 75.66 0 151.32.1 227-.16 7.13 0 11.48 4.51 17 7.2.7.35 1.08 2 1.08 3q0 30.18-.1 60.37a6.39 6.39 0 0 1 -.57 1.42h-4.63q-122.22 0-244.44 0c-22.76 0-40.74-14.24-45.3-35.87a60.33 60.33 0 0 1 -.94-12.4c-.1-116.28.18-232.54-.28-348.83-.11-28.71 21.88-49.3 48.18-48.12 10.74.48 21.53.12 32.82.12v9.37c.4 34.46 26.49 60.41 60.91 60.48q40.65.09 81.31 0c34.56-.06 60.61-25.66 61.31-60.2.06-3 0-6 0-8.74.56-.41.83-.77 1.1-.77 14.28.21 28.68-.67 42.8 1 19.4 2.23 35 19.3 36.32 38.78 1 13.91.52 27.92.6 41.89.07 13.8 0 27.61 0 41.41zm-271.54-1.47c0-3.33.25-6.49-.05-9.59-.81-8.32-7.42-14.23-15.33-14s-14 6.47-14.38 14.92c-.13 2.91 0 5.83 0 8.66-17.95 1.57-23.76 5-23.72 14.51a19.07 19.07 0 0 0 3.2 10.16c4.82 7.08 12.84 5.5 20.47 5.79v7.79c.21 9.43 6.28 16 14.8 16s14.76-6.54 15.1-15.86c.09-2.59 0-5.18 0-7.65 18.26-1.93 24-5.81 23.89-15.61s-5.98-13.55-23.98-15.12zm109 .37c-11.64 0-23.28-.05-34.92 0-9.36.05-15.92 6.21-16 14.82s6.47 15 15.73 15.08q34.92.1 69.84 0c9.28 0 16-6.32 16.08-14.82.09-8.66-6.76-15-16.32-15.08-11.51-.04-22.98 0-34.45 0z" fill="#39b54a"/><g fill="#006837"><path d="m254.67 303.34a103.61 103.61 0 1 1 103.59 103.78 103.59 103.59 0 0 1 -103.59-103.78z"/><path d="m182.79.05c13.64 0 27.28-.07 40.91 0 17.08.09 29.59 11.4 30.68 28.36a169.82 169.82 0 0 1 -.29 26.4 28.82 28.82 0 0 1 -28.25 25.95q-43.14.41-86.3 0c-15.3-.16-27.68-12.62-28.4-28-.38-8.13-.38-16.31 0-24.44a29.35 29.35 0 0 1 29.25-28.22c14.13-.2 28.27-.04 42.4-.05z"/></g></svg>