<svg viewBox="0 0 52.69 52.7" xmlns="http://www.w3.org/2000/svg"><g fill="#f9fbf9"><path d="m52.67 5.85a3.78 3.78 0 0 1 -1.32 2c-.69.73-1.33 1.37-1.9 1.92l-6.39-6.4c.65-.75 1.37-1.55 2.18-2.4a2.81 2.81 0 0 1 1.44-.91 2.16 2.16 0 0 1 1 0 4.93 4.93 0 0 1 2 1.42q.75.79 1.56 1.56a5.1 5.1 0 0 1 1.42 2 2.58 2.58 0 0 1 .01.81z"/><path d="m33.23 8.62-.46.4c-9.93 8.83-10.77 10.78-13.34 13.33a6 6 0 0 0 -1.5 2.42c-.65 2-1.34 4.06-2 6.09a4.63 4.63 0 0 0 5.91 5.92c2.08-.68 4.15-1.39 6.23-2.07a5.39 5.39 0 0 0 2.2-1.37c2-2 7.34-5.64 13.41-13.41l.38-.49h.06a.12.12 0 0 1 .09.09v.43c.13 7.38 0 18.43 0 26.93a5.65 5.65 0 0 1 -5.81 5.82q-16.29 0-32.58 0a5.65 5.65 0 0 1 -5.82-5.83v-32.58a5.64 5.64 0 0 1 5.71-5.81h27.44a.08.08 0 0 1 .08 0 .07.07 0 0 1 0 .13z"/><path d="m40.58 5.6 6.52 6.52-.36.37q-9.29 9.3-18.6 18.59a3.4 3.4 0 0 1 -1.2.74c-2 .69-4 1.33-6 2a1.58 1.58 0 0 1 -2.09-2.1c.69-2 1.35-4.09 2.05-6.12a2.3 2.3 0 0 1 .51-.87q9.5-9.52 19-19a.93.93 0 0 1 .17-.13z"/></g></svg>