<svg viewBox="0 0 239.47 223.65" xmlns="http://www.w3.org/2000/svg"><path d="m120 27.81a71.07 71.07 0 0 0 -24.36-20.35l-.33-.16a61 61 0 0 0 -51-1.48 71.15 71.15 0 0 0 -24.54 17.12 72.83 72.83 0 0 0 -11.06 15.52 76.55 76.55 0 0 0 -8 45.73 141.29 141.29 0 0 0 6.89 29.19c11.99 33.85 33.86 53.62 51.51 69.62a250.11 250.11 0 0 0 60.89 40.65 218.35 218.35 0 0 0 53.39-32.89c16.42-13.74 46.32-39.43 59.94-83.18a152.65 152.65 0 0 0 5.25-23 79 79 0 0 0 -5.12-42.29 68 68 0 0 0 -58.21-42 59.07 59.07 0 0 0 -31.83 6.28 61.51 61.51 0 0 0 -23.42 21.24z" fill="#006837"/></svg>