<svg viewBox="0 0 431.99 432" xmlns="http://www.w3.org/2000/svg"><path d="m0 389.8c2.13-13.25 10.11-22.75 19.59-30.74l53.41 53.4c-7.94 9.31-17.33 17.54-30.8 19.54h-8.44a14.19 14.19 0 0 0 -2-.65 37.84 37.84 0 0 1 -23.33-13.74c-4.71-5.7-6.69-12.45-8.43-19.37z" fill="#006837"/><path d="m393.44 163.14c3.14 2.87 5.84 5.11 8.3 7.59 16.55 16.71 16.6 39.49.13 56.31-5 5.13-10.11 10.18-15.21 15.22-7.06 7-13.8 6.93-20.9-.16q-47.14-47.1-94.27-94.24-40.56-40.56-81.13-81.13c-7.84-7.85-7.84-14.24.07-22.1 5.78-5.74 11.31-11.81 17.53-17 16.59-13.94 37.21-12.93 52.81 2.18 2.62 2.54 5.14 5.19 8.87 8.95 3.15-3.67 5.76-7.59 9.19-10.56 16.69-14.43 37.76-13.91 53.46 1.57q35.29 34.79 70.1 70.08c15.9 16.14 15.7 38.76 0 55.07-2.65 2.7-5.58 5.13-8.95 8.22z" fill="#39b54a"/><path d="m162.94 393.15c-3.5 3.9-6.18 7.62-9.55 10.54-16.52 14.32-37.56 14-53.15-1.24q-35.7-35-70.69-70.7c-15.89-16.26-15.38-38.76.52-55 2.54-2.61 5.35-5 8.69-8-3.12-2.81-5.84-5-8.29-7.5-16.59-16.72-16.66-39.47-.2-56.3q7.81-8 15.82-15.81c6.38-6.21 13.36-6.22 19.68.09q88.64 88.48 177.23 177.1c6.28 6.28 6.25 13.35 0 19.68s-12.07 12.64-18.71 18.25c-16.52 14-37.24 13-52.8-2.15-2.67-2.54-5.08-5.29-8.55-8.96z" fill="#39b54a"/><g fill="#006837"><path d="m285.35 199.23-86.1 85.82-52.43-52.41c28.44-28.33 57.48-57.29 86.1-85.81z"/><path d="m412.76 73.15-53.76-53.74c7.19-7.52 14.52-15.32 25.66-18.25 15.18-4 32.53 2.52 41.25 16s8 31.7-1.9 43.74c-3.6 4.38-7.69 8.4-11.25 12.25z"/></g></svg>