<svg enable-background="new 0 0 1125 2436" viewBox="0 0 1125 2436" xmlns="http://www.w3.org/2000/svg"><circle cx="690.214905" cy="2299.767578" fill="#e7eee7" r="61.768734"/><path d="m685.2702026 2346.8974609c-.6245728 0-1.2425537-.1271973-1.815979-.3747559-.9141235-.3945312-1.8463745-.7653809-2.6151733-1.3505859-1.7678833-1.3461914-2.4556274-3.3688965-2.6075439-5.5195312-.0011597-.0161133-.0022583-.0322266-.0033569-.0480957-.1793823-2.6340332 1.9422607-4.857666 4.5824585-4.857666h15.1639404c2.6716919 0 4.7826538 2.2734375 4.5775757 4.9372559-.0480957.6247559-.1225586 1.2441406-.2410278 1.8552246-.5218506 2.6923828-2.4418945 4.3676758-5.0936279 5.1391602-.02771.0083008-.0554199.0163574-.0831299.0244141-.428833.1271973-.8730469.1945801-1.3203735.1945801h-10.5437624z" fill="#006837"/><path d="m641.5272217 2297.2807617c.2788086-.9807129 1.017334-1.4975586 1.2850952-1.6789551.8986816-.6086426 1.8450928-.6691895 2.6494751-.6345215 2.2851562.0986328 4.5779419.0146484 6.8673706.0263672 1.9083252.0100098 3.3164673 1.3498535 3.2820435 3.095459-.0339966 1.7255859-1.4038696 2.994873-3.2767944 3.005127-2.2894287.0124512-4.5823975-.0744629-6.8673706.0273438-.8463745.0378418-1.7479858-.0380859-2.624939-.6203613-.276123-.1833496-1.0320435-.7019043-1.3148804-1.6938477-.2035523-.7138672-.0600586-1.3151856 0-1.5266114z" fill="#38b449"/><path d="m702.7766724 2328.5419922c-8.2937012 0-16.5545654 0-24.8679199 0-.1212769-.4741211-.2227783-.9326172-.3560791-1.3818359-.803833-2.7097168-2.368103-4.8654785-4.6014404-6.607666-5.6088257-4.3752441-9.1107788-10.076416-10.5491943-17.0483398-3.1804199-15.4152832 7.3695068-30.864502 22.8847656-33.4995117 15.1930542-2.5805664 29.4152832 6.5925293 32.7996826 21.5754395 2.5444946 11.2646484-.8591919 20.842041-9.5914917 28.4257812-2.3983765 2.0827637-4.496521 4.3024902-5.4135132 7.425293-.1069337.3640135-.2011719.7319334-.3048096 1.1108397zm-10.8091431-48.810791c-2.0981445-.0422363-3.5429077 1.1347656-3.6193237 2.9482422-.0750122 1.78125 1.3516235 3.0957031 3.4259033 3.1567383 5.9066162.1733398 10.6539917 4.9699707 10.8268433 10.9389648.0560913 1.9365234 1.3519287 3.3291016 3.0806274 3.3105469 1.7782593-.019043 3.0467529-1.4682617 3.0246582-3.4555664-.1004028-9.0144043-7.7307129-16.7177735-16.7387085-16.8989258z" fill="#006837"/><g fill="#38b449"><path d="m693.4420776 2256.2758789c.0001221 1.2717285.0146484 2.5437012-.0033569 3.8151855-.0259399 1.8308105-1.3886108 3.2180176-3.098877 3.1821289-1.689209-.0351562-2.9873657-1.3916016-2.9998169-3.1860352-.0178833-2.5751953-.0179443-5.1506348.0001221-7.7255859.0126343-1.8071289 1.2991943-3.1433105 3.0002441-3.168457 1.7351074-.0253906 3.072876 1.3322754 3.0981445 3.1723633.0178834 1.3032227.0034791 2.6069336.0035401 3.9104004z"/><path d="m732.1901245 2301.0969238c-1.2719116 0-2.5439453.0126953-3.8156738-.0029297-1.8395996-.0224609-3.2255859-1.3598633-3.2089233-3.0734863.0165405-1.701416 1.3555908-3.0095215 3.1544189-3.0239258 2.6072388-.0205078 5.2149048-.0227051 7.8220825.0009766 1.7741699.0163574 3.1156616 1.3701172 3.1044922 3.0666504-.0111084 1.6958008-1.3533936 3.001709-3.1453247 3.0285645-1.3034058.0197753-2.6073609.0039062-3.9110718.0041503z"/><path d="m666.3474121 2269.96875c.3399048.7453613.3881226 1.6032715.1160278 2.3759766-.2755737.7824707-.7654419 1.3283691-1.5306396 1.6914062-1.1477051.5446777-2.3034668.4572754-3.204834-.3974609-2.0759888-1.9682617-4.1054688-3.9902344-6.071167-6.0683594-1.0800171-1.1420898-.9175415-2.9614258.1865845-4.0661621 1.1071777-1.107666 2.9213257-1.2739258 4.0656128-.1931152 2.0797119 1.9643555 4.0957031 3.9995117 6.0639648 6.0754395.1586914.1674804.2784424.3715819.3744507.5822753z"/><path d="m725.6170044 2264.6413574c.2625732.7807617.1836548 1.6303711-.1837769 2.3674316-.1374512.2758789-.3057251.5561523-.5246582.7888184-1.8080444 1.9213867-3.692627 3.7722168-5.5830078 5.6140137-1.3024292 1.269043-3.147644 1.2460938-4.3550415.0144043-1.2049561-1.2290039-1.1846313-3.0566406.0953979-4.359375 1.8276367-1.8598633 3.6738892-3.7019043 5.5323486-5.5310059.9790039-.963623 2.2506104-1.1918945 3.4226685-.6552734.8016358.3669434 1.3157349.9277344 1.5960694 1.7609863z"/><path d="m716.2911987 2321.904541c.6943359-.2004395 1.4375-.1296387 2.0914307.1779785.3085327.1452637.6309204.326416.8925171.5722656 1.9223633 1.8068848 3.7713623 3.6933594 5.6167603 5.5803223 1.2611084 1.2895508 1.2489014 3.1547852.0319824 4.3579102-1.2268677 1.2126465-3.0523071 1.2038574-4.3569946-.0749512-1.8623657-1.8251953-3.7017822-3.6740723-5.5324097-5.5310059-.965271-.9794922-1.2177124-2.1477051-.668457-3.4187012.3729858-.863037.9890136-1.3937988 1.9251708-1.6638183z"/><path d="m666.4832153 2323.607666c.0894165.2124023.2999878.7841797.2044067 1.5039062-.1206055.9074707-.6573486 1.5180664-.9412842 1.8413086-2.9585571 3.369873-3.9289551 4.001709-5.5845337 5.6130371-1.293396 1.2587891-3.1456299 1.2180176-4.3533936-.0251465-1.1643066-1.1982422-1.1611328-3.0361328.0649414-4.2880859 1.8467407-1.8857422 3.7165527-3.7495117 5.5994263-5.5993652.9804688-.9631348 2.2463379-1.1665039 3.4273682-.6274414.2386475.1088867 1.143921.5385742 1.5830689 1.5817871z"/></g></svg>