<svg
viewBox="0 0 448 448"
xmlns="http://www.w3.org/2000/svg">
<path d="m0 316.29v-316.29h448v448h-220.51c3.87-3 8.14-5.67 11.55-9.14q47.94-48.71 95.53-97.74a15 15 0 0 1 12.11-5c27.6.23 55.2.13 82.8.1 10.22 0 17.41-6.57 17.5-15.8.09-9.42-7.18-16.1-17.68-16.11q-30.93 0-61.85 0h-5.38c11.53-40.91 3.58-76.29-33-99-39.13-24.33-75.17-14.49-105.8 18.38-27.22-33.69-68.65-37.79-98.27-22.95a78.74 78.74 0 0 0 -35.89 35.5c-11.11 21.88-11.98 44.57-3.69 68.08h-6c-19.62 0-39.25.33-58.86-.14-9.78-.18-16.69 2.99-20.56 12.11zm335.25-228.29v6.26q0 40.65 0 81.29c0 9.79 6.73 16.92 15.77 17 9.26.1 16.11-7.09 16.12-17.16q.07-54.61 0-109.22c0-8.53-3.54-13.71-11.57-16.72q-62.42-23.45-124.9-46.89a19.23 19.23 0 0 0 -14.51.12c-10 3.94-20.2 7.58-30.3 11.37q-45.71 17.12-91.38 34.25c-1.4.52-2.81 1-4.18 1.61-6.61 2.76-10.47 8.31-10.45 15a15.69 15.69 0 0 0 10.51 14.89c12.37 4.78 24.81 9.37 37.36 14.09v48.12c0 10.18 3.14 14.74 12.63 18.54 24.8 9.92 49.63 19.78 74.37 29.84a21.69 21.69 0 0 0 17.32.09c24.91-10.12 49.92-20 74.87-30 9.23-3.71 12.36-8.37 12.37-18.24 0-14.79-.06-29.59.1-44.38 0-1.61 1-4 2.19-4.65 4.14-2 8.6-3.35 13.68-5.21z" fill="#fff"/><path d="m0 316.29c3.87-9.12 10.78-12.34 20.58-12.11 19.61.47 39.24.14 58.86.14h6c-8.29-23.51-7.43-46.2 3.65-68.08a78.74 78.74 0 0 1 35.91-35.5c29.66-14.84 71.09-10.76 98.28 22.91 30.63-32.87 66.67-42.71 105.8-18.38 36.61 22.76 44.56 58.14 33 99h5.38q30.93 0 61.85 0c10.5 0 17.77 6.69 17.68 16.11-.09 9.23-7.28 15.79-17.5 15.8-27.6 0-55.2.13-82.8-.1a15 15 0 0 0 -12.11 5q-47.58 49.12-95.58 97.78c-3.41 3.47-7.68 6.11-11.55 9.14h-8c-3.87-3-8.12-5.68-11.54-9.15q-48.61-49.41-96.92-99.12a10.84 10.84 0 0 0 -8.67-3.55c-27.27.13-54.53-.2-81.79.21-9.8.15-16.69-3-20.59-12.11zm223.53-.29c1.17-2.12 2.07-3.64 2.86-5.21q7.14-14.25 14.23-28.52c3-6.14 8.07-9 14.84-9s11.78 2.93 14.81 9.08c3.17 6.4 6.23 12.85 9.67 19.1a6.14 6.14 0 0 0 4.41 2.79c12.63.23 25.26.21 37.89 0a6.33 6.33 0 0 0 4.36-2.3c11.25-15.29 11.35-38.62.42-55.47a47.7 47.7 0 0 0 -49.89-20.47c-20.55 4.53-34.64 19.94-37.53 41.41-.92 6.83-3.79 12.06-10.28 14.7-10.08 4.1-20.16-2.55-21.82-14.22-3.5-24.61-22.2-42.65-45.34-43.28-19.54-.52-34.52 8-43.91 25-9.65 17.43-8.57 35.09 1.93 52a7.1 7.1 0 0 0 5.16 2.63c12.29.23 24.6.25 36.89 0a7.24 7.24 0 0 0 5.09-3.29c3.36-5.9 6.29-12.06 9.22-18.2 3.05-6.39 8.07-9.47 15.07-9.45s11.94 3.15 15 9.52c4.63 9.55 9.46 19 14.23 28.51.74 1.34 1.58 2.67 2.69 4.67zm-71.31 20.29 71.3 72.94 71.28-72.94c-8.06 0-14.86.44-21.56-.16a31 31 0 0 1 -12-3.81c-2.48-1.39-3.95-4.6-6.2-7.42-5.62 11.21-11.14 22.1-16.56 33.1-3 6.18-7.72 10-14.75 10.11-7.25.09-12.09-3.76-15.22-10.15-4.91-10-9.93-19.91-14.93-29.84-.54-1.06-1.31-2-2.34-3.58-3.94 9.55-11 12.26-20 11.78-5.9-.32-11.83-.07-19.02-.07z" fill="#006837"/><path d="m0 324.28c3.9 9.07 10.79 12.26 20.59 12.11 27.26-.41 54.52-.08 81.79-.21a10.84 10.84 0 0 1 8.67 3.55q48.31 49.71 96.92 99.12c3.42 3.47 7.67 6.12 11.54 9.15h-219.51z" fill="#fff"/><path d="m335.25 88c-5.08 1.87-9.54 3.22-13.68 5.22-1.22.6-2.17 3-2.19 4.65-.16 14.79-.08 29.59-.1 44.38 0 9.87-3.14 14.53-12.37 18.24-25 10-50 19.88-74.87 30a21.69 21.69 0 0 1 -17.32-.09c-24.74-10.06-49.57-19.92-74.37-29.84-9.49-3.8-12.62-8.36-12.63-18.54 0-15.95 0-31.9 0-48.12-12.55-4.72-25-9.31-37.36-14.09a15.69 15.69 0 0 1 -10.51-14.93c0-6.66 3.84-12.21 10.45-15 1.37-.58 2.78-1.09 4.18-1.61q45.69-17.13 91.38-34.25c10.1-3.79 20.26-7.43 30.3-11.37a19.23 19.23 0 0 1 14.51-.12q62.45 23.49 124.92 46.89c8 3 11.57 8.19 11.57 16.72q.06 54.61 0 109.22c0 10.07-6.86 17.26-16.12 17.16-9-.09-15.75-7.22-15.77-17q-.07-40.65 0-81.29zm-193.12-23.17c1.61.76 2.42 1.22 3.29 1.55 25.15 9.46 50.28 18.94 75.49 28.24a9.57 9.57 0 0 0 6.08-.31q37.11-13.69 74.11-27.69a39.13 39.13 0 0 0 3.7-1.9c-1.23-.56-1.79-.86-2.38-1.09-25.3-9.52-50.59-19.08-76-28.43a10.25 10.25 0 0 0 -6.55.28c-23.81 8.76-47.56 17.69-71.32 26.6-1.89.72-3.76 1.61-6.42 2.75zm145.22 41.17c-1.88.65-3 1-4 1.41-16.62 6.2-33.31 12.22-49.81 18.72a25 25 0 0 1 -19.68.09c-16.17-6.43-32.55-12.33-48.86-18.43-1.61-.6-3.27-1.06-5.31-1.72 0 8.83-.16 17 .15 25.07 0 1.39 1.84 3.34 3.28 3.93q28.53 11.68 57.24 23a8.44 8.44 0 0 0 5.61.32q29.4-11.52 58.62-23.49c1.19-.49 2.65-2.19 2.68-3.37.19-8.3.08-16.59.08-25.53z" fill="#006837"/><g fill="#39b54a"><path d="m223.53 316c-1.11-1.94-1.95-3.29-2.66-4.7-4.77-9.49-9.6-19-14.23-28.51-3.09-6.37-8-9.51-15-9.52s-12 3.06-15.07 9.45c-2.93 6.14-5.86 12.3-9.22 18.2a7.24 7.24 0 0 1 -5.09 3.29c-12.29.28-24.6.26-36.89 0a7.1 7.1 0 0 1 -5.16-2.63c-10.5-16.91-11.58-34.57-1.93-52 9.39-16.95 24.37-25.48 43.91-25 23.14.63 41.84 18.67 45.34 43.28 1.66 11.67 11.74 18.32 21.82 14.22 6.49-2.64 9.36-7.87 10.28-14.7 2.89-21.47 17-36.88 37.53-41.41a47.7 47.7 0 0 1 49.84 20.48c10.93 16.85 10.83 40.18-.42 55.47a6.33 6.33 0 0 1 -4.36 2.3c-12.63.18-25.26.2-37.89 0a6.14 6.14 0 0 1 -4.41-2.79c-3.44-6.25-6.5-12.7-9.67-19.1-3-6.15-8-9.06-14.81-9.08s-11.79 2.87-14.84 9q-7.1 14.26-14.23 28.52c-.77 1.55-1.67 3.07-2.84 5.23z"/><path d="m152.22 336.25c7.19 0 13.12-.26 19 .06 9 .48 16.05-2.23 20-11.78 1 1.57 1.8 2.52 2.34 3.58 5 9.93 10 19.86 14.93 29.84 3.13 6.39 8 10.24 15.22 10.15 7-.09 11.7-3.93 14.75-10.11 5.42-11 10.94-21.88 16.58-33.13 2.25 2.82 3.72 6 6.2 7.42a31 31 0 0 0 12 3.81c6.7.6 13.5.16 21.56.16l-71.28 72.94z"/><path d="m142.13 64.83c2.66-1.14 4.53-2 6.47-2.75 23.76-8.91 47.51-17.84 71.32-26.6a10.25 10.25 0 0 1 6.55-.28c25.36 9.35 50.65 18.91 76 28.43.59.23 1.15.53 2.38 1.09a39.13 39.13 0 0 1 -3.7 1.9q-37 13.92-74.11 27.69a9.57 9.57 0 0 1 -6.08.31c-25.21-9.3-50.34-18.78-75.49-28.24-.92-.33-1.73-.79-3.34-1.55z"/><path d="m287.35 106c0 8.91.11 17.2-.12 25.48 0 1.18-1.49 2.88-2.68 3.37q-29.24 11.94-58.62 23.49a8.44 8.44 0 0 1 -5.61-.32q-28.69-11.3-57.24-23c-1.44-.59-3.23-2.54-3.28-3.93-.31-8.11-.15-16.24-.15-25.07 2 .66 3.7 1.12 5.31 1.72 16.31 6.1 32.69 12 48.86 18.43a25 25 0 0 0 19.68-.09c16.5-6.5 33.19-12.52 49.81-18.72 1.07-.36 2.16-.68 4.04-1.36z"/></g></svg>