<svg enable-background="new 0 0 1125 2436" viewBox="0 0 1125 2436" xmlns="http://www.w3.org/2000/svg" xmlns:xlink="http://www.w3.org/1999/xlink"><linearGradient id="a"><stop offset="0" stop-color="#006837"/><stop offset="1" stop-color="#006837"/></linearGradient><linearGradient id="b" gradientTransform="matrix(0 1 -1 0 5626.123 2169.2129)" gradientUnits="userSpaceOnUse" x1="-2201.7131" x2="-1533.1487" xlink:href="#a" y1="5137.2939" y2="5137.2939"/><linearGradient id="c" gradientTransform="matrix(0 1 -1 0 5626.123 2169.2129)" gradientUnits="userSpaceOnUse" x1="-2169.2405" x2="-1557.7391" xlink:href="#a" y1="5132.3765" y2="5132.3765"/><linearGradient id="d" gradientTransform="matrix(0 1 -1 0 5626.123 2169.2129)" gradientUnits="userSpaceOnUse" x1="-2142.0002" x2="-1581.2389" xlink:href="#a" y1="5127.4595" y2="5127.4595"/><linearGradient id="e" gradientTransform="matrix(0 1 -1 0 5626.123 2169.2129)" gradientUnits="userSpaceOnUse" x1="-2179.3369" x2="-1603.5203" xlink:href="#a" y1="5122.5444" y2="5122.5444"/><linearGradient id="f" gradientTransform="matrix(0 1 -1 0 5626.123 2169.2129)" gradientUnits="userSpaceOnUse" x1="-2216.6736" x2="-1624.4358" xlink:href="#a" y1="5117.6299" y2="5117.6299"/><linearGradient id="g" gradientTransform="matrix(0 1 -1 0 5626.123 2169.2129)" gradientUnits="userSpaceOnUse" x1="-2254.0103" x2="-1643.8163" xlink:href="#a" y1="5112.7173" y2="5112.7173"/><linearGradient id="h" gradientTransform="matrix(0 1 -1 0 5626.123 2169.2129)" gradientUnits="userSpaceOnUse" x1="-2291.3467" x2="-1661.4662" xlink:href="#a" y1="5107.8066" y2="5107.8066"/><linearGradient id="i" gradientTransform="matrix(0 1 -1 0 5626.123 2169.2129)" gradientUnits="userSpaceOnUse" x1="-2328.6831" x2="-1677.1602" xlink:href="#a" y1="5102.8975" y2="5102.8975"/><linearGradient id="j" gradientTransform="matrix(0 1 -1 0 5626.123 2169.2129)" gradientUnits="userSpaceOnUse" x1="-2366.0195" x2="-1690.6382" xlink:href="#a" y1="5097.9907" y2="5097.9907"/><linearGradient id="k" gradientTransform="matrix(0 1 -1 0 5626.123 2169.2129)" gradientUnits="userSpaceOnUse" x1="-2403.3557" x2="-1701.6006" xlink:href="#a" y1="5093.0859" y2="5093.0859"/><linearGradient id="l" gradientTransform="matrix(0 1 -1 0 5626.123 2169.2129)" gradientUnits="userSpaceOnUse" x1="-2440.6919" x2="-1709.7035" xlink:href="#a" y1="5088.1831" y2="5088.1831"/><linearGradient id="m" gradientTransform="matrix(0 1 -1 0 5626.123 2169.2129)" gradientUnits="userSpaceOnUse" x1="-2478.0281" x2="-1714.5549" xlink:href="#a" y1="5083.2812" y2="5083.2812"/><linearGradient id="n" gradientTransform="matrix(0 1 -1 0 5626.123 2169.2129)" gradientUnits="userSpaceOnUse" x1="-2515.364" x2="-1715.7118" xlink:href="#a" y1="5078.3809" y2="5078.3809"/><linearGradient id="o" gradientTransform="matrix(0 1 -1 0 5626.123 2169.2129)" gradientUnits="userSpaceOnUse" x1="-2552.7002" x2="-1712.6814" xlink:href="#a" y1="5073.4814" y2="5073.4814"/><linearGradient id="p" gradientTransform="matrix(0 1 -1 0 5626.123 2169.2129)" gradientUnits="userSpaceOnUse" x1="-2590.0361" x2="-1704.9269" xlink:href="#a" y1="5068.5815" y2="5068.5815"/><linearGradient id="q" gradientTransform="matrix(0 1 -1 0 5626.123 2169.2129)" gradientUnits="userSpaceOnUse" x1="-2627.3718" x2="-1691.8806" xlink:href="#a" y1="5063.6812" y2="5063.6812"/><linearGradient id="r" gradientTransform="matrix(0 1 -1 0 5626.123 2169.2129)" gradientUnits="userSpaceOnUse" x1="-2664.7075" x2="-1672.9674" xlink:href="#a" y1="5058.7803" y2="5058.7803"/><linearGradient id="s" gradientTransform="matrix(0 1 -1 0 5626.123 2169.2129)" gradientUnits="userSpaceOnUse" x1="-2702.0432" x2="-1647.6382" xlink:href="#a" y1="5053.8779" y2="5053.8779"/><linearGradient id="t" gradientTransform="matrix(0 1 -1 0 5626.123 2169.2129)" gradientUnits="userSpaceOnUse" x1="-2739.3789" x2="-1616.1713" xlink:href="#a" y1="5048.959" y2="5048.959"/><linearGradient id="u" gradientTransform="matrix(0 1 -1 0 5626.123 2169.2129)" gradientUnits="userSpaceOnUse" x1="-2776.7144" x2="-1583.6774" xlink:href="#a" y1="5044.0229" y2="5044.0229"/><linearGradient id="v" gradientTransform="matrix(0 1 -1 0 5626.123 2169.2129)" gradientUnits="userSpaceOnUse" x1="-2814.0496" x2="-1551.1851" xlink:href="#a" y1="5039.0884" y2="5039.0884"/><linearGradient id="w" gradientTransform="matrix(0 1 -1 0 5626.123 2169.2129)" gradientUnits="userSpaceOnUse" x1="-2851.3848" x2="-1518.6938" xlink:href="#a" y1="5034.1548" y2="5034.1548"/><linearGradient id="x" gradientTransform="matrix(0 -1 1 0 -778.8333 3648.0786)" gradientUnits="userSpaceOnUse" x1="1004.3158" x2="1313.8694" xlink:href="#a" y1="1433.8529" y2="1433.8529"/><linearGradient id="y" gradientTransform="matrix(0 -1 1 0 -778.8333 3648.0786)" gradientUnits="userSpaceOnUse" x1="1033.6793" x2="1276.5342" xlink:href="#a" y1="1413.53" y2="1413.53"/><linearGradient id="z" gradientTransform="matrix(0 -1 1 0 -778.8333 3648.0786)" gradientUnits="userSpaceOnUse" x1="1056.229" x2="1244.3711" xlink:href="#a" y1="1392.8069" y2="1392.8069"/><linearGradient id="A" gradientTransform="matrix(0 -1 1 0 -778.8333 3648.0786)" gradientUnits="userSpaceOnUse" x1="1060.0836" x2="1276.8674" xlink:href="#a" y1="1372.365" y2="1372.365"/><linearGradient id="B" gradientTransform="matrix(0 -1 1 0 -778.8333 3648.0786)" gradientUnits="userSpaceOnUse" x1="1060.6543" x2="1309.3638" xlink:href="#a" y1="1351.9883" y2="1351.9883"/><linearGradient id="C" gradientTransform="matrix(0 -1 1 0 -778.8333 3648.0786)" gradientUnits="userSpaceOnUse" x1="1061.3065" x2="1341.86" xlink:href="#a" y1="1331.6873" y2="1331.6873"/><linearGradient id="D" gradientTransform="matrix(0 -1 1 0 -778.8333 3648.0786)" gradientUnits="userSpaceOnUse" x1="1057.5459" x2="1374.3561" xlink:href="#a" y1="1311.4746" y2="1311.4746"/><linearGradient id="E" gradientTransform="matrix(0 -1 1 0 -778.8333 3648.0786)" gradientUnits="userSpaceOnUse" x1="1043.4862" x2="1406.8522" xlink:href="#a" y1="1291.3662" y2="1291.3662"/><linearGradient id="F" gradientTransform="matrix(0 -1 1 0 -778.8333 3648.0786)" gradientUnits="userSpaceOnUse" x1="1014.1843" x2="1439.3901" xlink:href="#a" y1="1270.7352" y2="1270.7352"/><linearGradient id="G" gradientTransform="matrix(0 -1 1 0 -778.8333 3648.0786)" gradientUnits="userSpaceOnUse" x1="976.8472" x2="1474.3021" xlink:href="#a" y1="1250.8519" y2="1250.8519"/><linearGradient id="H" gradientTransform="matrix(0 -1 1 0 -778.8333 3648.0786)" gradientUnits="userSpaceOnUse" x1="939.5145" x2="1511.8521" xlink:href="#a" y1="1231.1743" y2="1231.1743"/><linearGradient id="I" gradientTransform="matrix(0 -1 1 0 -778.8333 3648.0786)" gradientUnits="userSpaceOnUse" x1="902.1885" x2="1551.0482" xlink:href="#a" y1="1211.7421" y2="1211.7421"/><linearGradient id="J" gradientTransform="matrix(0 -1 1 0 -778.8333 3648.0786)" gradientUnits="userSpaceOnUse" x1="864.8722" x2="1591.3156" xlink:href="#a" y1="1192.6119" y2="1192.6119"/><linearGradient id="K" gradientTransform="matrix(0 -1 1 0 -778.8333 3648.0786)" gradientUnits="userSpaceOnUse" x1="827.5686" x2="1632.3105" xlink:href="#a" y1="1173.8633" y2="1173.8633"/><linearGradient id="L" gradientTransform="matrix(0 -1 1 0 -778.8333 3648.0786)" gradientUnits="userSpaceOnUse" x1="790.2795" x2="1673.8188" xlink:href="#a" y1="1155.6071" y2="1155.6071"/><linearGradient id="M" gradientTransform="matrix(0 -1 1 0 -778.8333 3648.0786)" gradientUnits="userSpaceOnUse" x1="753.0034" x2="1715.7013" xlink:href="#a" y1="1138.0033" y2="1138.0033"/><linearGradient id="N" gradientTransform="matrix(0 -1 1 0 -778.8333 3648.0786)" gradientUnits="userSpaceOnUse" x1="715.7357" x2="1757.8643" xlink:href="#a" y1="1121.2899" y2="1121.2899"/><linearGradient id="O" gradientTransform="matrix(0 -1 1 0 -778.8333 3648.0786)" gradientUnits="userSpaceOnUse" x1="678.4697" x2="1800.2426" xlink:href="#a" y1="1105.8362" y2="1105.8362"/><linearGradient id="P" gradientTransform="matrix(0 -1 1 0 -778.8333 3648.0786)" gradientUnits="userSpaceOnUse" x1="641.1995" x2="1842.7897" xlink:href="#a" y1="1092.2454" y2="1092.2454"/><linearGradient id="Q" gradientTransform="matrix(0 -1 1 0 -778.8333 3648.0786)" gradientUnits="userSpaceOnUse" x1="603.9217" x2="1885.4716" xlink:href="#a" y1="1081.5728" y2="1081.5728"/><linearGradient id="R" gradientTransform="matrix(0 -1 1 0 -778.8333 3648.0786)" gradientUnits="userSpaceOnUse" x1="566.6" x2="1928.2625" xlink:href="#a" y1="1075.3588" y2="1075.3588"/><linearGradient id="S" gradientTransform="matrix(0 -1 1 0 -778.8333 3648.0786)" gradientUnits="userSpaceOnUse" x1="529.2172" x2="1971.1431" xlink:href="#a" y1="1070.4257" y2="1070.4257"/><g fill="none" opacity=".34" stroke-miterlimit="10"><g stroke="#006837"><path d="m746.7 2438.4c592-1075.7-1245.5-1393.7-833.2-2426.3"/><path d="m782.4 2352.9c524.3-1053-1248-1273.4-897.1-2258.9"/><path d="m818 2267.3c456.6-1030.4-1250.5-1153-961-2091.4"/><path d="m853.6 2181.8c389-1007.8-1252.9-1032.7-1024.8-1924"/><path d="m889.3 2096.3c321.3-985.2-1255.4-912.4-1088.7-1756.6"/><path d="m924.9 2010.7c253.6-962.6-1257.9-792-1152.5-1589.2"/><path d="m960.6 1925.2c186-939.9-1260.4-671.7-1216.4-1421.8"/><path d="m996.2 1839.7c118.3-917.4-1262.8-551.4-1280.3-1254.4"/><path d="m1031.8 1754.1c50.7-894.7-1265.3-431-1344.1-1087"/><path d="m1067.5 1668.6c-17-872.1-1267.8-310.7-1408-919.6"/><path d="m1103.1 1583.1c-84.7-849.5-1270.3-190.3-1471.8-752.2"/><path d="m1138.8 1497.5c-152.4-826.8-1272.8-70-1535.7-584.7"/><path d="m1174.4 1412c-220-804.2-1275.2 50.3-1599.5-417.4"/><path d="m1210 1326.5c-287.7-781.6-1277.7 170.7-1663.4-250"/><path d="m1245.7 1240.9c-355.3-759-1280.1 291-1727.3-82.5"/><path d="m1281.3 1155.4c-423-736.4-1282.6 411.3-1791.1 84.9"/><path d="m1316.9 1069.9c-490.6-713.8-1285 531.7-1854.9 252.2"/><path d="m1352.6 984.3c-558.3-691.1-1287.6 652.1-1918.9 419.7"/><path d="m1388.2 898.8c-626-668.5-1290 772.4-1982.7 587.1"/><path d="m1423.9 813.3c-693.7-646-1292.6 892.7-2046.6 754.5"/><path d="m1459.5 727.7c-761.3-623.3-1295 1013-2110.4 921.9"/><path d="m1495.1 642.2c-828.9-600.7-1297.4 1133.4-2174.2 1089.3"/></g><path d="m1368.1-32.4c-177.2 728.4-1279.6 984.3-1758.6 134.5" stroke="url(#b)"/><path d="m1377.1.1c-202.1 686.8-1297.1 907.5-1766.8 64.7" stroke="url(#c)"/><path d="m1386.2 32.6c-227 645.3-1314.7 830.6-1775.1-5.2" stroke="url(#d)"/><path d="m1395.2 65.1c-252 603.8-1332.3 753.8-1783.4-75" stroke="url(#e)"/><path d="m1404.3 97.6c-276.9 562.2-1350 677-1791.6-144.8" stroke="url(#f)"/><path d="m1413.4 130.1c-301.9 520.7-1367.6 600.2-1800-214.7" stroke="url(#g)"/><path d="m1422.4 162.6c-326.8 479.2-1385.1 523.4-1808.2-284.5" stroke="url(#h)"/><path d="m1431.5 195.1c-351.8 437.7-1402.8 446.6-1816.5-354.3" stroke="url(#i)"/><path d="m1440.6 227.6c-376.7 396.1-1420.4 369.7-1824.8-424.2" stroke="url(#j)"/><path d="m1449.6 260.1c-401.6 354.6-1438 292.9-1833-494" stroke="url(#k)"/><path d="m1458.7 292.6c-426.6 313.1-1455.6 216.1-1841.3-563.9" stroke="url(#l)"/><path d="m1467.7 325.1c-451.5 271.5-1473.2 139.3-1849.6-633.7" stroke="url(#m)"/><path d="m1476.8 357.6c-476.5 230-1490.8 62.5-1857.9-703.5" stroke="url(#n)"/><path d="m1485.9 390.1c-501.4 188.5-1508.5-14.3-1866.2-773.4" stroke="url(#o)"/><path d="m1494.9 422.6c-526.3 147-1526-91.1-1874.4-843.2" stroke="url(#p)"/><path d="m1504 455.1c-551.3 105.4-1543.7-168-1882.7-913.1" stroke="url(#q)"/><path d="m1513 487.6c-576.2 63.9-1561.2-244.8-1891-982.9" stroke="url(#r)"/><path d="m1522.1 520c-601.2 22.5-1578.9-321.5-1899.3-1052.6" stroke="url(#s)"/><path d="m1531.2 552.5c-626.1-19.1-1596.5-398.3-1907.6-1122.5" stroke="url(#t)"/><path d="m1540.2 585c-651-60.6-1614.1-475.1-1915.8-1192.3" stroke="url(#u)"/><path d="m1549.3 617.5c-676-102.1-1631.7-551.9-1924.1-1262.1" stroke="url(#v)"/><path d="m1558.4 650c-701-143.6-1649.4-628.8-1932.5-1332" stroke="url(#w)"/><path d="m-484.5 2469.2c1499.7 180.7 2259 220.7 2278.2 120 9.5-50.1-163.7-134.9-519.7-254.5" stroke="url(#x)"/><path d="m-493.5 2436.7c1462.8 157.8 2227.9 215.3 2254.9 151.9 16.4-38.5-150.3-112.1-488.1-216.6" stroke="url(#y)"/><path d="m-502.6 2404.2c1425.9 134.8 2183.9 203.6 2231.7 183.8 15.2-29.8-136.9-89.3-456.6-178.6" stroke="url(#z)"/><path d="m-511.7 2371.7c1389 111.8 2146.4 195 2208.4 215.7 18-19.7-123.4-66.5-425-140.7" stroke="url(#A)"/><path d="m-520.7 2339.2c1352.2 88.8 2108.9 186.5 2185.1 247.6 20.9-9.6-110-43.7-393.5-102.8" stroke="url(#B)"/><path d="m-529.8 2306.7c1315.3 65.8 2071.3 177.9 2161.9 279.5 23.7.5-96.6-20.9-361.9-64.9" stroke="url(#C)"/><path d="m-538.8 2274.2c1278.4 42.8 2033.8 169.4 2138.6 311.5 26.5 10.6-83.2 1.9-330.4-27" stroke="url(#D)"/><path d="m-547.9 2241.7c1241.6 19.8 1996.3 160.8 2115.3 343.4 29.4 20.7-69.7 24.6-298.9 10.9" stroke="url(#E)"/><path d="m-557 2209.2c1204.7-3.2 1930.1 172.1 2092.1 375.3 27.8 34.9-56.3 47.4-267.3 48.9" stroke="url(#F)"/><path d="m-566 2176.7c1167.8-26.2 1895.9 159.5 2068.8 407.2 30.9 44.2-42.9 70.2-235.8 86.8" stroke="url(#G)"/><path d="m-575.1 2144.2c1131-49.1 1861.5 148 2045.6 439.1 34 53.7-29.5 93-204.2 124.7" stroke="url(#H)"/><path d="m-584.1 2111.7c1094.1-72.1 1826.7 137.2 2022.3 471.1 37.2 63.4-16 115.8-172.7 162.6" stroke="url(#I)"/><path d="m-593.2 2079.2c1057.2-95.1 1791.6 126.9 1999 503 40.3 73.2-2.6 138.6-141.2 200.5" stroke="url(#J)"/><path d="m-602.3 2046.8c1020.3-118.1 1756.4 116.8 1975.8 534.9 43.5 83 10.8 161.4-109.6 238.4" stroke="url(#K)"/><path d="m-611.3 2014.3c983.5-141.1 1721 107 1952.5 566.8 46.7 92.8 24.2 184.2-78.1 276.4" stroke="url(#L)"/><path d="m-620.4 1981.8c946.6-164.1 1685.4 97.3 1929.3 598.7 49.9 102.7 37.6 207-46.5 314.3" stroke="url(#M)"/><path d="m-629.5 1949.3c909.7-187.1 1649.8 87.7 1906 630.7 53.1 112.6 51.1 229.8-15 352.2" stroke="url(#N)"/><path d="m-638.5 1916.8c872.9-210.1 1614.1 78.3 1882.7 662.6 56.3 122.5 64.5 252.6 16.6 390.1" stroke="url(#O)"/><path d="m-647.6 1884.3c836-233.1 1578.3 68.9 1859.5 694.5 59.5 132.5 77.9 275.4 48.1 428" stroke="url(#P)"/><path d="m-656.6 1851.8c799.1-256 1542.5 59.5 1836.2 726.4 62.7 142.4 91.3 298.1 79.6 465.9" stroke="url(#Q)"/><path d="m-665.7 1819.3c762.3-279 1506.6 50.2 1812.9 758.3 65.9 152.4 104.8 320.9 111.2 503.9" stroke="url(#R)"/><path d="m-674.8 1786.8c882.5-367.5 1794.6 219.8 1932.4 1332" stroke="url(#S)"/></g></svg>