<svg viewBox="0 0 123.54 123.54" xmlns="http://www.w3.org/2000/svg"><circle cx="61.77" cy="61.77" fill="#e7eee7" r="61.77"/><path d="m56.82 108.9a4.52 4.52 0 0 1 -1.81-.38 11.79 11.79 0 0 1 -2.62-1.35 7.19 7.19 0 0 1 -2.6-5.52 4.57 4.57 0 0 1 4.58-4.86h15.16a4.59 4.59 0 0 1 4.58 4.94 16.44 16.44 0 0 1 -.25 1.85 6.63 6.63 0 0 1 -5.09 5.14h-.08a4.54 4.54 0 0 1 -1.32.2z" fill="#006837"/><path d="m13.08 59.28a3.06 3.06 0 0 1 1.29-1.68 4.13 4.13 0 0 1 2.63-.6c2.28.1 4.57 0 6.86 0a3.06 3.06 0 1 1 0 6.11c-2.29 0-4.58-.08-6.87 0a4.14 4.14 0 0 1 -2.62-.62 3 3 0 0 1 -1.32-1.69 2.87 2.87 0 0 1 .03-1.52z" fill="#38b449"/><path d="m74.33 90.54h-24.87c-.12-.47-.22-.93-.35-1.38a12.93 12.93 0 0 0 -4.6-6.61 28.12 28.12 0 0 1 -10.51-17.04 28.47 28.47 0 0 1 22.84-33.51c15.16-2.57 29.42 6.6 32.8 21.58 2.54 11.27-.86 20.84-9.59 28.43-2.4 2.08-4.5 4.3-5.41 7.42-.11.37-.21.73-.31 1.11zm-10.81-48.81c-2.1 0-3.54 1.14-3.62 3s1.35 3.1 3.43 3.16a11.21 11.21 0 0 1 10.82 10.89 3.07 3.07 0 1 0 6.11-.15 17.39 17.39 0 0 0 -16.74-16.9z" fill="#006837"/><g fill="#38b449"><path d="m65 18.28v3.81a3.05 3.05 0 1 1 -6.1 0c0-2.58 0-5.15 0-7.73a3.05 3.05 0 1 1 6.1 0z"/><path d="m103.74 63.1h-3.81a3.1 3.1 0 0 1 -3.21-3.1 3 3 0 0 1 3.15-3h7.83a3 3 0 1 1 0 6.09c-1.35.02-2.65.01-3.96.01z"/><path d="m37.9 32a3.21 3.21 0 0 1 .1 2.35 2.86 2.86 0 0 1 -1.51 1.65 2.74 2.74 0 0 1 -3.21-.4q-3.11-3-6.07-6.07a3 3 0 0 1 4.25-4.26q3.12 3 6.07 6.08a2 2 0 0 1 .37.65z"/><path d="m97.17 26.64a3.15 3.15 0 0 1 -.17 2.36 3.22 3.22 0 0 1 -.53.79c-1.81 1.92-3.69 3.77-5.58 5.61a3 3 0 1 1 -4.26-4.34q2.75-2.79 5.53-5.53a3 3 0 0 1 3.42-.66 2.82 2.82 0 0 1 1.59 1.77z"/><path d="m87.84 83.91a3 3 0 0 1 2.1.17 3.58 3.58 0 0 1 .89.58c1.92 1.8 3.77 3.69 5.62 5.58a3 3 0 1 1 -4.33 4.28q-2.79-2.74-5.53-5.52a2.91 2.91 0 0 1 -.67-3.42 2.79 2.79 0 0 1 1.92-1.67z"/><path d="m38 85.61a2.87 2.87 0 0 1 .2 1.5 3.45 3.45 0 0 1 -.9 1.89 64.56 64.56 0 0 1 -5.58 5.62 3 3 0 1 1 -4.29-4.32q2.76-2.82 5.6-5.6a3 3 0 0 1 3.42-.7 3.11 3.11 0 0 1 1.55 1.61z"/></g></svg>