<svg viewBox="0 0 113.79 102.9" xmlns="http://www.w3.org/2000/svg"><path d="m57 12.8a33.53 33.53 0 0 0 -11.55-9.37l-.16-.07a29.87 29.87 0 0 0 -24.29-.68 33.76 33.76 0 0 0 -16.9 15 34.33 34.33 0 0 0 -3.79 21.06 63.88 63.88 0 0 0 3.3 13.43c5.7 15.57 16.09 24.68 24.48 32a119 119 0 0 0 28.91 18.73 104.43 104.43 0 0 0 25.39-15.13c7.8-6.32 22-18.14 28.48-38.27a68.21 68.21 0 0 0 2.49-10.61 35.19 35.19 0 0 0 -2.43-19.45 31.87 31.87 0 0 0 -8.74-11.78 33.37 33.37 0 0 0 -18.92-7.56 28.64 28.64 0 0 0 -26.27 12.7z" fill="#38b449"/></svg>