<svg viewBox="0 0 1125 739.33" xmlns="http://www.w3.org/2000/svg"><g fill="#f9fbf9"><path d="m524.5 359.32-103.89-212a66.89 66.89 0 0 0 -122.5 0l-197.62 396-100.49-203.09v282l40.08 81.14a68.34 68.34 0 0 0 120.41 0l204.01-398.37 35.94 78.38c4.94 11 28.74 62.73 36.95 75 8 12 12.88 28 44 28l470.64 1v-128.06z"/><path d="m1125 0h-.18a66.53 66.53 0 0 0 -61.71 39.57l-195.49 391.76-193.84-391.75a64 64 0 0 0 -114.81 0l-110.8 213.68h-78v62.42c8.95 20.25 18.25 38.74 27.44 55.39 48.62.33 85 .36 102 .9a39.37 39.37 0 0 0 19.79-4 37.16 37.16 0 0 0 15.82-15.82l79.14-154.33q96.75 195.87 193.49 391.75a67.61 67.61 0 0 0 119.12 0l198-386.67z"/></g></svg>