<svg viewBox="0 0 123.54 123.54" xmlns="http://www.w3.org/2000/svg" xmlns:xlink="http://www.w3.org/1999/xlink"><linearGradient id="a" gradientUnits="userSpaceOnUse" x1="13.46" x2="110.08" y1="67.45" y2="67.45"><stop offset="0" stop-color="#39b54a"/><stop offset=".5" stop-color="#37b349"/><stop offset=".5" stop-color="#107d3c"/><stop offset=".5" stop-color="#006837"/></linearGradient><circle cx="61.77" cy="61.77" fill="#e7eee7" r="61.77"/><path d="m61.87 34.63a28.36 28.36 0 0 0 -9.82-8l-.14-.07a25.36 25.36 0 0 0 -20.58-.56 28.75 28.75 0 0 0 -14.33 12.79 29.2 29.2 0 0 0 -3.25 17.86 53.82 53.82 0 0 0 2.81 11.41c4.83 13.22 13.66 21 20.78 27.21a101.2 101.2 0 0 0 24.56 15.87 88.65 88.65 0 0 0 21.51-12.85c6.63-5.37 18.69-15.4 24.19-32.5a59.6 59.6 0 0 0 2.12-9 29.94 29.94 0 0 0 -2.07-16.52 27.14 27.14 0 0 0 -7.42-10 28.32 28.32 0 0 0 -16.07-6.42 24.33 24.33 0 0 0 -22.29 10.78z" fill="url(#a)"/><path d="m81.31 67.11h-20.19q-2.46-5-4.91-10a3.16 3.16 0 0 0 -5.79 0l-9.33 18.7-9.26-18.71a3.06 3.06 0 0 0 -5.48 0l-5.29 10.2h-4.87c.28.87.63 1.8 1 2.78s.94 2 1.41 2.85h4.87a1.79 1.79 0 0 0 .94-.19 1.81 1.81 0 0 0 .76-.75l3.83-7.33q4.62 9.34 9.23 18.7a3.23 3.23 0 0 0 5.69 0l9.64-18.81c.56 1.23 1.13 2.47 1.7 3.7.23.52 1.35 3 1.74 3.54a2.05 2.05 0 0 0 2.08 1.33h22.23z" fill="#fff"/><path d="m82.13 72.74a.94.94 0 0 1 -.57.38 1 1 0 0 1 -.94-.38 91.77 91.77 0 0 1 -5.62-7.65 36.24 36.24 0 0 1 -4.39-8.23 13.39 13.39 0 0 1 -.89-6.8 11.68 11.68 0 0 1 4.28-7.47 11.95 11.95 0 0 1 19 12.64 25 25 0 0 1 -3 6.77 88.2 88.2 0 0 1 -7.87 10.74zm-.58-14.87a6 6 0 1 0 -6-6 6 6 0 0 0 6 6z" fill="#c1c1c1"/></svg>