<svg viewBox="0 0 406 511.09" xmlns="http://www.w3.org/2000/svg"><path d="m314.72 0c5.9 2.59 10.5 6.25 11.37 13.21a14.94 14.94 0 0 1 -14 16.66c-3.29.21-6.61 0-10.47 0-.1 2-.27 3.78-.27 5.52q0 76.07-.1 152.14c0 3.85 1 5.68 4.75 7.32 51.47 22.9 83 62.36 96.77 117.17a12 12 0 0 1 -3.15.26c-11-2.44-21.42-.43-31.06 4.68a29 29 0 0 1 -27-.3c-13.9-7.24-28.32-7.14-42.26.18-9 4.71-17.22 5.07-26.36.18-14.24-7.62-29-7.61-43.32 0a28.47 28.47 0 0 1 -25.93.22c-6.62-3.29-14.13-4.73-22-7.23v-280.07c-3.27 0-6 0-8.8 0-8.21-.09-14.29-4.6-15.8-11.71-1.66-7.59 1.91-13.86 9.8-17.39a8.57 8.57 0 0 0 1.19-.84zm-25.37 265a15.15 15.15 0 0 0 -10-10.76c-11.05-3.59-21.95 6.77-19 18a15.14 15.14 0 0 0 10.35 10.6c10.91 3.16 21.3-6.9 18.65-17.84z" fill="#006837"/><path d="m.18 128c.82-3 2.52-7 6.24-9.64 5.11-3.64 11.37-2.59 13.29-2.59q62.8 0 125.59 0c10.45 0 17.68 7.49 15.74 17.09-.75 3.69-3.47 7.5-6.35 10.08-2.25 2-3.2 3.62-3.19 6.51.09 24.1.05 48.2.05 72.3v6.37h-141.65v-5.73c0-24.1 0-48.2 0-72.3a9.78 9.78 0 0 0 -.67-3.9 11.1 11.1 0 0 0 -2.76-3.55c-2.28-2.32-3.71-3.77-4.26-4.41-1.38-1.64-2.7-4.6-2.03-10.23z" fill="#39b54a"/><path d="m166.76 492.4c12.31-19.56 15.21-41.13 14.83-63.67-.46-26.94-.11-53.89-.11-80.84v-6.72c2.49.65 4.54 1 6.45 1.74 3.73 1.4 7.41 2.92 11.06 4.53 12.32 5.44 24.83 5.41 36.59-.74 11.29-5.91 21.4-5.84 32.91.93s25.62 5.55 37.3-1.08c.49-.28 1.08-.39 1.56-.68 8.42-5.12 16.64-5.05 25.35-.71 14.05 7 30.61 7.61 44.55.4 8.29-4.28 16.47-5.38 25.21-1.41 2.4 1.09 3.57 2 3.54 5-.75 77.45-58.29 145.37-134.77 159.1a163.06 163.06 0 0 1 -99.64-12.88c-1.2-.56-2.4-1.14-3.58-1.75a8.77 8.77 0 0 1 -1.25-1.22zm63.94-120.11a15 15 0 1 0 15.14 14.64 15.07 15.07 0 0 0 -15.14-14.64zm70 45.27c.27-9.72-9.53-18-19.72-14.54a15 15 0 0 0 4.51 29.12 15.2 15.2 0 0 0 15.22-14.58z" fill="#006837"/><path d="m151.55 258.87v5.45q0 86.78 0 173.57c-.05 36-22.43 64.24-56.54 71.65-44.38 9.64-87.45-27-85-72.37a14.24 14.24 0 0 1 .47-2c10 0 20.07.18 30.14 0 11.6-.26 18.53-12.06 13.09-22-2.89-5.28-7.54-7.81-13.49-7.84-9.8-.06-19.59 0-29.83 0v-30.07c9.89 0 19.79.08 29.68 0 8.38-.09 14.66-5.65 15.38-13.36a14.79 14.79 0 0 0 -14.69-16.5c-8.47-.2-16.95-.05-25.42-.05h-5.17v-29.97h23.83c2.5 0 5 .12 7.48-.05a14.86 14.86 0 0 0 14-15.28 14.64 14.64 0 0 0 -14.21-14.52c-8.46-.28-16.94-.08-25.42-.09h-5.67v-26.57z" fill="#39b54a"/></svg>