<svg viewBox="0 0 52.04 51.86" xmlns="http://www.w3.org/2000/svg"><g fill="#fff"><path d="m0 5.7c.13-.46.23-.94.39-1.4a6.35 6.35 0 0 1 5.96-4.3h19.51a2.11 2.11 0 0 1 2.21 2.15 2.09 2.09 0 0 1 -2.21 2.15c-2.71 0-5.41 0-8.12 0-3.64 0-7.29 0-10.93 0a2.15 2.15 0 0 0 -2.12 1 3.63 3.63 0 0 0 -.35 1.6q0 12.52 0 25 0 6.54 0 13.06a2.43 2.43 0 0 0 .75 2 2.59 2.59 0 0 0 1.8.55h18.57a5.11 5.11 0 0 1 1 .05 2.15 2.15 0 0 1 -.31 4.24h-19.55a6.45 6.45 0 0 1 -6.44-5.02c0-.21-.11-.42-.16-.63z"/><path d="m44.59 28.08h-24.88a2.18 2.18 0 0 1 -2.39-1.8 2.16 2.16 0 0 1 1.9-2.49h.76 24.61l-.45-.47-8.72-8.6a2.26 2.26 0 0 1 -.78-2.23 2.14 2.14 0 0 1 3.36-1.25 4.69 4.69 0 0 1 .53.47l12.59 12.42a2.22 2.22 0 0 1 0 3.6l-12.66 12.49a2.18 2.18 0 0 1 -3.05.37 2.14 2.14 0 0 1 -.36-3 6 6 0 0 1 .49-.52q4.31-4.24 8.6-8.5c.12-.14.23-.27.45-.49z"/></g></svg>