<svg viewBox="0 0 515.86 444.47" xmlns="http://www.w3.org/2000/svg"><path d="m.47 103.22c4-5.65 7.74-11.43 11.87-17 19.66-26.31 39.53-52.56 59.13-78.98 3.73-5.02 8.08-7.24 14.35-7.24q172.53.15 345.07 0c6.27 0 10.63 2.2 14.36 7.22q33.21 44.67 66.75 89.07c3.3 4.38 5.22 8.89 2.63 14.18-2.7 5.5-7.63 6.77-13.31 6.77q-243 0-486.06 0c-7.37 0-12-3.13-14.82-9.67a5.42 5.42 0 0 1 -.44-2.29 5.29 5.29 0 0 1 .47-2.06z" fill="#006837"/><path d="m468.8 140.87v303.59h-140.2v-5.82q0-48 0-96c0-10.69-3.91-14.71-14.44-14.72q-55.69 0-111.39 0c-10.68 0-14.62 3.95-14.63 14.52q0 47.73 0 95.47v6.42h-140.14v-303.46zm-245.56 58.13c-7.75 0-14.69-.1-21.63 0-9 .16-13.43 4.67-13.47 13.61-.06 13.88 0 27.77 0 41.66 0 11 3.83 14.88 14.78 14.93h19.84a13.8 13.8 0 0 1 .44 1.92c0 6.58 0 13.15.06 19.73.09 9.12 4.3 13.39 13.5 13.44q21.39.12 42.77 0c9.84-.05 13.91-4.2 14-14.1 0-6.86 0-13.72 0-21h20.44c10.69-.06 14.65-4 14.67-14.48q0-20.57 0-41.12c0-10.29-4.3-14.55-14.68-14.62-6.68 0-13.36 0-20.43 0 0-7.68 0-14.59 0-21.51-.14-8.93-4.53-13.46-13.53-13.57q-21.66-.18-43.31 0c-8.94.08-13.33 4.69-13.39 13.67-.1 6.91-.06 13.82-.06 21.44zm-128.67 163.54v21.93 1.1c.29 7.53 4.33 12.28 11.74 12.42q23.3.43 46.6 0c6.93-.13 11.54-4.55 11.68-11.39q.51-23.57 0-47.14c-.14-7.19-4.84-11.41-12.06-11.49q-23-.23-46 0c-7.53.09-11.75 4.48-11.92 12.1s-.02 14.98-.04 22.47zm327.58.31c0-7.31.08-14.62 0-21.93-.12-8.65-4.22-12.91-12.73-13q-22.2-.18-44.41 0c-8.45.06-12.91 4.39-13 12.85q-.24 22.2 0 44.4c.1 8.08 4.61 12.74 12.59 12.86q22.47.31 45 0c8.12-.11 12.43-4.65 12.58-12.73.07-7.46-.04-14.96-.03-22.45z" fill="#39b54a"/><path d="m304.85 444.47h-93.06v-92.93h93.06z" fill="#006837"/><path d="m246.56 187.77v19.2c0 11.93-3.73 15.57-15.86 15.58h-19v23.31h13.82c19.44 0 21 1.56 21 20.75v14.39h23.6c0-7.17 0-13.71 0-20.25 0-11 3.88-14.84 14.84-14.86h20v-23.34c-7.19 0-14.09.08-21 0-9.49-.13-13.71-4.34-13.8-13.77-.08-6.9 0-13.8 0-21z" fill="#fff"/><path d="m118.11 374.14h22.76v-22.47h-22.76z" fill="#fff"/><path d="m375.86 351.4v22.85h22.57v-22.85z" fill="#fff"/><g fill="#006837"><path d="m246.56 187.77h23.6c0 7.2-.06 14.1 0 21 .09 9.43 4.31 13.64 13.8 13.77 6.89.09 13.79 0 21 0v23.32c-6.64 0-13.3 0-20 0-11 0-14.79 3.85-14.84 14.86v20.25h-23.6v-14.35c0-19.19-1.57-20.75-21-20.75h-13.79v-23.31h19c12.13 0 15.83-3.65 15.86-15.58-.01-6.2-.03-12.39-.03-19.21z"/><path d="m118.11 374.14v-22.47h22.76v22.47z"/><path d="m375.86 351.4h22.57v22.85h-22.57z"/></g></svg>