<svg enable-background="new 0 0 1125 2436"
    viewBox="0 0 1125 2436"
    xmlns="http://www.w3.org/2000/svg"><g fill="#006837" opacity=".26"><path d="m752.9185181 1504.3477783c-34.9719238-87.0997314-87.3361816-162.2320557-172.9643555-208.7366943-54.5634766-29.6335449-113.2174072-43.6811523-174.6224365-42.5614014-19.1697998.3494873-39.5256348 9.7209473-56.881958 19.3800049-31.8323975 17.715332-61.2407227 39.7370605-92.7157135 58.1577148-80.1799316 46.9250488-164.0760498 72.746582-252.0274658 66.4912109v434.0892334 404.8514404c158.3066406.0095215 316.6134033-.0058594 474.920166.0632324 77.8039551.0339355 151.2553711-14.9943848 215.7734375-61.1914062 71.4135742-51.1340332 114.2624512-121.1682129 122.1359863-207.8835449 14.4028473-158.6267089-4.0136566-314.2124023-63.6176605-462.65979z"/><path d="m468.6199341 720.3170166c-28.6716309-217.4246826-233.079361-351.2070312-335.1587067-372.4524536-8.3588867-1.7398682-50.2873535-9.8372192-105.576416-11.6209717-7.9306641-.2558594-15.9616699-.4887085-24.1782227-.5875854v913.5595703c13.6489258.2869873 27.4790039-.0036621 41.487793-.9511719 155.4561768-10.5146484 272.9919434-84.5849609 357.9399414-211.8249512 63.9453278-95.7810669 80.4237213-202.8417358 65.485611-316.1224365z"/></g></svg>