<svg enable-background="new 0 0 1125 2436"
    viewBox="0 0 1125 2436"
    xmlns="http://www.w3.org/2000/svg"><g fill="#39b54a"><path d="m692.920105 1800.4091797-56.2062378-108.3978271c-5.4078369-10.7369385-16.2147217-17.6960449-28.1032715-18.0662842-12.5957031-.392334-24.3891602 6.6743164-30.1414795 18.0662842l-98.3299561 198.7293701-99.1728516-198.7293701c-5.4970703-12.3741455-17.8696289-20.3006592-31.3061523-20.0736084-13.0344238.2199707-24.842041 8.0749512-30.1680908 20.0736084-17.3780518 35.463501-34.7559814 70.9268799-52.1339111 106.3905029h-62.2934723v63.9597168l83.9288483-.1813965c15.6134033 0 18.0662842-8.0292969 22.0810547-14.0515137 4.1171875-6.1757812 16.05896-32.1179199 18.5406494-37.6538086 6.0124512-13.1124268 12.0250244-26.2248535 18.0375977-39.3371582l102.3757324 199.8978271c5.9606934 11.078125 17.5432129 18.0286865 30.1105957 18.0662842 12.6401367.0378418 24.3203125-6.9237061 30.3157959-18.0662842 32.7186279-66.2431641 65.4371338-132.4863281 98.1556396-198.7293701 13.3824463 26.0957031 26.7648926 52.1914062 40.1474609 78.2873535.7675781 1.4796143 3.0932617 5.4858398 8.0294189 8.0294189 4.2733154 2.2020264 8.3856201 2.0596924 10.0368652 2.0073242 8.6087646-.2735596 27.0812988-.2889404 51.7459717-.4573975 4.9931641-9.0493164 10.0562744-19.1584473 14.8910522-30.3093262 4.4921875-10.3603516 8.1895142-20.2409668 11.24646-29.4543457h-51.7877196z"/><path d="m161.510788 1798.4019775c-17.3779297-35.463623-34.7558594-70.927002-52.1337891-106.3905029-5.3261719-11.9986572-17.1337891-19.8536377-30.1682129-20.0736084-13.4365234-.2270508-25.8090782 7.6994629-31.3061485 20.0736084l-43.9228516 88.0158691v141.9216309l77.2363281-150.8111572c6.0126953 13.1123047 12.0251465 26.2247314 18.0375977 39.3371582 2.4816895 5.5358887 14.423584 31.4780273 18.5407715 37.6538086 4.0146484 6.0222168 6.4675293 14.0515137 22.0810547 14.0515137l83.9287109.1813965v-63.9597168h-62.2934608z"/></g></svg>