<svg viewBox="0 0 410.59 410.58" xmlns="http://www.w3.org/2000/svg"><path d="m267.05 0h36.05a39.34 39.34 0 0 1 5.74.48c.21 0 .42.06.63.07 17.17 1.45 34.36 2.61 51.53 4.34a50.5 50.5 0 0 1 44.74 44c4.25 33.48 6 67.05 4.14 100.78a40.46 40.46 0 0 1 -13.14 28.33c-9.31 8.74-20.74 11.5-33.09 12.07a860.93 860.93 0 0 1 -101-.75c-20.26-1.44-37.44-16.41-40.59-36.46a199.44 199.44 0 0 1 -1.92-23.95c-1.06-30.33-1.57-60.67 1.25-90.94 1.7-18.28 16.1-33.41 34.18-36.57 3.82-.68 7.67-.95 11.48-1.4z" fill="#006837"/><path d="m0 306.35v-38.49c.26-2.23.66-4.45.75-6.68a40 40 0 0 1 12.66-28.12c9.41-9.09 21.06-12 33.71-12.53a867.27 867.27 0 0 1 100.56.75c20.54 1.45 37.67 16.33 40.84 36.64a199.41 199.41 0 0 1 1.89 23.95c1.05 30.19 1.52 60.41-1.23 90.54a41.5 41.5 0 0 1 -34.4 36.78 122.84 122.84 0 0 1 -17.17 1.23 586.73 586.73 0 0 1 -88.77-4.71c-21.84-2.83-39.74-19.41-43.32-41.24-1.94-11.84-2.78-23.87-3.93-35.83-.71-7.41-1.07-14.86-1.59-22.29z" fill="#006837"/><g fill="#39b54a"><path d="m105.06 0h37.69c2.24.26 4.47.65 6.71.75a40.13 40.13 0 0 1 28.1 12.67c9 9.3 11.89 20.81 12.48 33.31a858.05 858.05 0 0 1 -.74 101.27c-1.44 20.21-16.44 37.34-36.54 40.48a204.2 204.2 0 0 1 -24.73 2c-29.9 1-59.83 1.46-89.68-1.25a41.83 41.83 0 0 1 -37-34.6c-.67-3.63-.92-7.39-1.35-11.08v-39.29c.2-1.3.47-2.59.58-3.9 1.42-16.89 2.6-33.81 4.3-50.68a49.61 49.61 0 0 1 41.21-44.14c12.37-2 24.93-2.84 37.42-4 7.17-.71 14.36-1.05 21.55-1.54z"/><path d="m318.16 218.89c17.76.79 35.4 1.16 53 2.46 21.84 1.65 37.68 18.84 38.77 40.65a565.94 565.94 0 0 1 -4.24 100 50.89 50.89 0 0 1 -43.69 43.7 582.53 582.53 0 0 1 -88.35 4.74 125.1 125.1 0 0 1 -18-1.27 41.53 41.53 0 0 1 -34.26-36.89c-2.69-30.39-2.32-60.86-1.13-91.31a205.39 205.39 0 0 1 1.84-23.14 43.39 43.39 0 0 1 39.73-36.37c18.8-1.19 37.63-1.74 56.33-2.57z"/></g></svg>