<svg enable-background="new 0 0 1125 2436" viewBox="0 0 1125 2436" xmlns="http://www.w3.org/2000/svg" xmlns:xlink="http://www.w3.org/1999/xlink"><linearGradient id="a"><stop offset="0" stop-color="#006837"/><stop offset="1" stop-color="#006837"/></linearGradient><linearGradient id="b" gradientTransform="matrix(0 1 -1 0 5626.123 2169.2129)" gradientUnits="userSpaceOnUse" x1="-1633.4255" x2="-964.861" xlink:href="#a" y1="5290.917" y2="5290.917"/><linearGradient id="c" gradientTransform="matrix(0 1 -1 0 5626.123 2169.2129)" gradientUnits="userSpaceOnUse" x1="-1600.9526" x2="-989.4514" xlink:href="#a" y1="5285.9995" y2="5285.9995"/><linearGradient id="d" gradientTransform="matrix(0 1 -1 0 5626.123 2169.2129)" gradientUnits="userSpaceOnUse" x1="-1573.7126" x2="-1012.9512" xlink:href="#a" y1="5281.0825" y2="5281.0825"/><linearGradient id="e" gradientTransform="matrix(0 1 -1 0 5626.123 2169.2129)" gradientUnits="userSpaceOnUse" x1="-1611.0493" x2="-1035.2325" xlink:href="#a" y1="5276.167" y2="5276.167"/><linearGradient id="f" gradientTransform="matrix(0 1 -1 0 5626.123 2169.2129)" gradientUnits="userSpaceOnUse" x1="-1648.3859" x2="-1056.1481" xlink:href="#a" y1="5271.2529" y2="5271.2529"/><linearGradient id="g" gradientTransform="matrix(0 1 -1 0 5626.123 2169.2129)" gradientUnits="userSpaceOnUse" x1="-1685.7224" x2="-1075.5286" xlink:href="#a" y1="5266.3403" y2="5266.3403"/><linearGradient id="h" gradientTransform="matrix(0 1 -1 0 5626.123 2169.2129)" gradientUnits="userSpaceOnUse" x1="-1723.059" x2="-1093.1785" xlink:href="#a" y1="5261.4297" y2="5261.4297"/><linearGradient id="i" gradientTransform="matrix(0 1 -1 0 5626.123 2169.2129)" gradientUnits="userSpaceOnUse" x1="-1760.3954" x2="-1108.8724" xlink:href="#a" y1="5256.5205" y2="5256.5205"/><linearGradient id="j" gradientTransform="matrix(0 1 -1 0 5626.123 2169.2129)" gradientUnits="userSpaceOnUse" x1="-1797.7317" x2="-1122.3505" xlink:href="#a" y1="5251.6138" y2="5251.6138"/><linearGradient id="k" gradientTransform="matrix(0 1 -1 0 5626.123 2169.2129)" gradientUnits="userSpaceOnUse" x1="-1835.068" x2="-1133.3129" xlink:href="#a" y1="5246.709" y2="5246.709"/><linearGradient id="l" gradientTransform="matrix(0 1 -1 0 5626.123 2169.2129)" gradientUnits="userSpaceOnUse" x1="-1872.4042" x2="-1141.4158" xlink:href="#a" y1="5241.8057" y2="5241.8057"/><linearGradient id="m" gradientTransform="matrix(0 1 -1 0 5626.123 2169.2129)" gradientUnits="userSpaceOnUse" x1="-1909.7404" x2="-1146.2672" xlink:href="#a" y1="5236.9043" y2="5236.9043"/><linearGradient id="n" gradientTransform="matrix(0 1 -1 0 5626.123 2169.2129)" gradientUnits="userSpaceOnUse" x1="-1947.0764" x2="-1147.4241" xlink:href="#a" y1="5232.0039" y2="5232.0039"/><linearGradient id="o" gradientTransform="matrix(0 1 -1 0 5626.123 2169.2129)" gradientUnits="userSpaceOnUse" x1="-1984.4124" x2="-1144.3937" xlink:href="#a" y1="5227.104" y2="5227.104"/><linearGradient id="p" gradientTransform="matrix(0 1 -1 0 5626.123 2169.2129)" gradientUnits="userSpaceOnUse" x1="-2021.7483" x2="-1136.6392" xlink:href="#a" y1="5222.2046" y2="5222.2046"/><linearGradient id="q" gradientTransform="matrix(0 1 -1 0 5626.123 2169.2129)" gradientUnits="userSpaceOnUse" x1="-2059.0842" x2="-1123.5929" xlink:href="#a" y1="5217.3042" y2="5217.3042"/><linearGradient id="r" gradientTransform="matrix(0 1 -1 0 5626.123 2169.2129)" gradientUnits="userSpaceOnUse" x1="-2096.4199" x2="-1104.6797" xlink:href="#a" y1="5212.4028" y2="5212.4028"/><linearGradient id="s" gradientTransform="matrix(0 1 -1 0 5626.123 2169.2129)" gradientUnits="userSpaceOnUse" x1="-2133.7556" x2="-1079.3505" xlink:href="#a" y1="5207.501" y2="5207.501"/><linearGradient id="t" gradientTransform="matrix(0 1 -1 0 5626.123 2169.2129)" gradientUnits="userSpaceOnUse" x1="-2171.0911" x2="-1047.8835" xlink:href="#a" y1="5202.582" y2="5202.582"/><linearGradient id="u" gradientTransform="matrix(0 1 -1 0 5626.123 2169.2129)" gradientUnits="userSpaceOnUse" x1="-2208.4265" x2="-1015.3897" xlink:href="#a" y1="5197.646" y2="5197.646"/><linearGradient id="v" gradientTransform="matrix(0 1 -1 0 5626.123 2169.2129)" gradientUnits="userSpaceOnUse" x1="-2245.762" x2="-982.8974" xlink:href="#a" y1="5192.7114" y2="5192.7114"/><linearGradient id="w" gradientTransform="matrix(0 1 -1 0 5626.123 2169.2129)" gradientUnits="userSpaceOnUse" x1="-2283.0972" x2="-950.4062" xlink:href="#a" y1="5187.7778" y2="5187.7778"/><g fill="none" opacity=".34" stroke-miterlimit="10"><g stroke="#006837"><path d="m1049.4 2964.5c852.1-1548.3-1792.7-2006.1-1199.3-3492.3"/><path d="m-41.5-484.6c-340.6 750.1 246.8 1258.4 707.4 1803.9 383.9 451.7 680.3 929 285.8 1596.7"/><path d="m66.9-441.5c-357.1 688.4 173.9 1201.3 586.3 1747.5 342.1 453.1 603.3 928.6 200.8 1561.5"/><path d="m175.3-398.3c-373.6 626.6 101.7 1143.3 465.1 1691 301.1 453.8 526.2 928.2 115.8 1526.4"/><path d="m283.7-355.1c-390.1 564.7 29.5 1085.2 344 1634.5 260.1 454.3 449.1 927.8 30.8 1491.2"/><path d="m392.1-311.9c-406.5 503-42.7 1026.8 222.9 1578.1 219 454.7 372.1 927.4-54.2 1456"/><path d="m500.6-268.7c-423 441.2-114.9 968.3 101.7 1521.6 178 454.9 295 927-139.2 1420.8"/><path d="m609-225.5c-439.6 379.4-186.9 909.5-19.5 1465.2 137.1 455 218 926.6-224.1 1385.7"/><path d="m717.4-182.3c-456 317.6-258.8 850.6-140.6 1408.7 96.3 454.9 140.9 926.2-309.1 1350.5"/><path d="m825.8-139.1c-472.5 255.8-330.5 791.5-261.8 1352.2 55.7 454.7 63.9 925.8-394.1 1315.3"/><path d="m934.2-96c-488.9 194-401.9 732.4-382.9 1295.8 15.3 454.4-13.2 925.4-479.1 1280.1"/><path d="m1042.6-52.8c-505.4 132.3-473.1 673.2-504.1 1239.4-24.9 454.1-90.2 925-564.1 1245"/><path d="m1151-9.6c-521.9 70.4-544 614-625.3 1182.9-64.8 453.8-167.3 924.6-649.1 1209.8"/><path d="m1259.4 33.6c-538.4 8.7-614.6 555-746.4 1126.4-104.6 453.6-244.3 924.2-734 1174.6"/><path d="m1367.8 76.8c-554.8-53.1-685.1 496.1-867.5 1069.9-144.2 453.6-321.4 923.8-819 1139.4"/><path d="m1476.2 120c-571.3-114.9-755.4 437.4-988.7 1013.5-183.8 453.7-398.5 923.4-904 1104.3"/><path d="m1584.6 163.2c-587.8-176.7-825.6 378.9-1109.8 957-223.2 453.9-475.5 923-989 1069.1"/><path d="m1693.1 206.4c-604.3-238.5-895.8 320.6-1231.1 900.5-262.6 454.3-552.5 922.6-1074 1033.9"/><path d="m1801.5 249.5c-620.8-300.3-966 262.5-1352.2 844.1-302 454.8-629.6 922.2-1159 998.7"/><path d="m1909.9 292.7c-637.3-362-1036.2 204.6-1473.4 787.7-341.5 455.5-706.7 921.8-1244 963.6"/><path d="m2018.3 335.9c-653.7-423.8-1105.6 147.4-1594.5 731.2-380.3 456.8-783.7 921.4-1329 928.4"/><path d="m2126.7 379.1c-670.2-485.7-1176.7 89-1715.6 674.7-420.5 457.1-860.8 921-1414 893.2"/></g><path d="m1214.4 535.9c-177.1 728.3-1279.5 984.3-1758.5 134.5" stroke="url(#b)"/><path d="m1223.5 568.4c-202.1 686.8-1297.1 907.4-1766.8 64.7" stroke="url(#c)"/><path d="m1232.6 600.9c-227 645.3-1314.7 830.6-1775.1-5.2" stroke="url(#d)"/><path d="m1241.6 633.4c-252 603.8-1332.3 753.8-1783.4-75" stroke="url(#e)"/><path d="m1250.7 665.9c-276.9 562.2-1350 677-1791.6-144.8" stroke="url(#f)"/><path d="m1259.7 698.4c-301.8 520.7-1367.5 600.2-1799.9-214.7" stroke="url(#g)"/><path d="m1268.8 730.9c-326.8 479.2-1385.2 523.4-1808.2-284.5" stroke="url(#h)"/><path d="m1277.9 763.4c-351.8 437.6-1402.8 446.5-1816.5-354.4" stroke="url(#i)"/><path d="m1286.9 795.9c-376.7 396.1-1420.4 369.7-1824.7-424.2" stroke="url(#j)"/><path d="m1296 828.4c-401.6 354.6-1438 292.9-1833-494" stroke="url(#k)"/><path d="m1305.1 860.9c-426.6 313.1-1455.7 216.1-1841.4-563.9" stroke="url(#l)"/><path d="m1314.1 893.4c-451.5 271.5-1473.2 139.3-1849.6-633.7" stroke="url(#m)"/><path d="m1323.2 925.9c-476.5 230-1490.8 62.5-1857.9-703.5" stroke="url(#n)"/><path d="m1332.2 958.4c-501.4 188.5-1508.4-14.3-1866.1-773.4" stroke="url(#o)"/><path d="m1341.3 990.8c-526.3 147-1526-91.1-1874.4-843.2" stroke="url(#p)"/><path d="m1350.4 1023.3c-551.3 105.5-1543.7-167.9-1882.7-913" stroke="url(#q)"/><path d="m1359.4 1055.8c-576.2 64-1561.2-244.7-1891-982.8" stroke="url(#r)"/><path d="m1368.5 1088.3c-601.2 22.5-1578.9-321.5-1899.3-1052.6" stroke="url(#s)"/><path d="m1377.5 1120.8c-626.1-19.1-1596.4-398.3-1907.5-1122.5" stroke="url(#t)"/><path d="m1386.6 1153.3c-651-60.6-1614.1-475.1-1915.8-1192.3" stroke="url(#u)"/><path d="m1395.7 1185.8c-676-102.1-1631.7-551.9-1924.2-1262.2" stroke="url(#v)"/><path d="m1404.7 1218.3c-700.9-143.7-1649.3-628.8-1932.4-1332" stroke="url(#w)"/></g></svg>