<svg viewBox="0 0 123.54 123.54" xmlns="http://www.w3.org/2000/svg"><circle cx="61.77" cy="61.77" fill="#e7eee7" r="61.77"/><path d="m67.57 93.31a8 8 0 0 1 6.48 3.14 3.12 3.12 0 0 0 2.86 1.11 5.59 5.59 0 0 0 4.2-3.56c.77-1.67-.06-3.06-1.3-4.3-6.26-6.23-12.49-12.51-18.72-18.77a7.07 7.07 0 0 1 -.7-.75 1.78 1.78 0 0 1 .14-2.26 1.66 1.66 0 0 1 2.24-.16 6.22 6.22 0 0 1 .75.7q9.48 9.54 18.92 19.02a3.61 3.61 0 0 0 3.8 1.2 5.8 5.8 0 0 0 3.65-3.63c.57-1.55-.14-2.78-1.23-3.87q-9.51-9.53-19-19.08a3.37 3.37 0 0 1 -.88-1.23 1.53 1.53 0 0 1 .79-1.87 1.76 1.76 0 0 1 2.24.41q3.25 3.28 6.52 6.55c4.31 4.33 8.6 8.65 12.92 13a3.56 3.56 0 0 0 5.43 0l.66-.66c1.91-1.94 1.9-3.85 0-5.8l-9.34-9.38q-8.54-8.59-17.1-17.18a3.5 3.5 0 0 0 -1.34-.89 1.94 1.94 0 0 0 -2 .77c-4.39 4.43-8.78 8.86-13.21 13.24a10.4 10.4 0 0 1 -13.92 1c-3.19-2.49-3.41-5.86-.57-8.71l18.59-18.68c.25-.26.48-.53.71-.78-.12-.15-.15-.21-.2-.26s-.3-.28-.46-.41c-7-5.6-14.86-7.67-23.57-5.84a28.2 28.2 0 0 0 -18 42.53c1.94 3.13 4.59 5.6 7.14 8.18 1.2 1.22 2.41 2.42 3.5 3.52a27.19 27.19 0 0 1 2.18-3.11q3.49-3.69 7.18-7.21a8 8 0 0 1 2.53-1.67c4.42-1.77 10.35 2.19 10.63 7 0 .4 0 .79.06 1.11 5.28.68 8.17 3.58 8.82 8.73 3.87-.19 8.61 4.01 8.6 8.85zm-12-9.1c-.21-1.93-1.48-2.95-2.64-4a3.4 3.4 0 0 0 -4.82.09c-2.5 2.47-5 5-7.44 7.47a3.6 3.6 0 0 0 -.19 4.84 17.65 17.65 0 0 0 1.42 1.45 3.62 3.62 0 0 0 5-.06c2.47-2.42 4.93-4.86 7.31-7.37a11.35 11.35 0 0 0 1.38-2.42zm-19.92 2.16a3.57 3.57 0 0 0 2.74-1.22c2.34-2.36 4.7-4.7 7-7.06a3.56 3.56 0 0 0 0-5.44c-.23-.24-.48-.48-.72-.72a4 4 0 0 0 -5.65 0c-2.25 2.24-4.48 4.51-6.74 6.75-1.22 1.21-1.93 2.64-1.09 4.24s2.28 3.22 4.46 3.45zm37.28 15.25-.26-.13c.11-1.75-1.16-2.69-2.23-3.73a3.43 3.43 0 0 0 -5 0c-2.51 2.47-5 5-7.46 7.48a3.49 3.49 0 0 0 -.05 4.91c.41.46.84.9 1.29 1.33a3.47 3.47 0 0 0 5 0c2.49-2.44 5-4.9 7.36-7.43a10.68 10.68 0 0 0 1.35-2.43zm-8.67-8.74-.26-.13c.08-1.66-1.09-2.59-2.12-3.58a3.49 3.49 0 0 0 -5.21 0q-3.67 3.62-7.31 7.33a3.51 3.51 0 0 0 0 5c.39.43.8.85 1.23 1.24a3.49 3.49 0 0 0 5.06-.06c2.47-2.42 4.93-4.85 7.31-7.37a10.82 10.82 0 0 0 1.3-2.43z" fill="#fff"/><path d="m110.83 55.55a35.2 35.2 0 0 1 -1 4.92 31.26 31.26 0 0 1 -1.59 4.42 28.14 28.14 0 0 1 -5.85 8.26.39.39 0 0 1 -.64-.15 10.68 10.68 0 0 0 -2.91-3.92l-25.38-25.47c-2.8-2.81-5.76-2.8-8.58 0-4.26 4.27-8.5 8.56-12.77 12.81a7.12 7.12 0 0 1 -9.77.65c-1.21-1-1.29-2-.2-3.14 7.13-7.16 14.17-14.4 21.43-21.44a26.83 26.83 0 0 1 22.08-7.59c12.24 1.15 22.65 12 24.84 23.52a25.47 25.47 0 0 1 .34 7.13z" fill="#026937"/><path d="m67.57 93.31c0-4.84-4.73-9-8.64-8.83-.65-5.15-3.54-8-8.82-8.73 0-.32 0-.71-.06-1.11-.28-4.83-6.21-8.79-10.63-7a8 8 0 0 0 -2.53 1.67q-3.68 3.52-7.18 7.21a27.19 27.19 0 0 0 -2.18 3.11c-1.09-1.1-2.3-2.3-3.5-3.52-2.55-2.58-5.2-5-7.14-8.18a28.2 28.2 0 0 1 18-42.53c8.71-1.83 16.62.24 23.57 5.84.16.13.31.27.46.41s.08.11.2.26c-.23.25-.46.52-.71.78l-18.53 18.62c-2.84 2.85-2.62 6.22.57 8.71a10.4 10.4 0 0 0 13.92-1c4.43-4.38 8.82-8.81 13.21-13.24a1.94 1.94 0 0 1 2-.77 3.5 3.5 0 0 1 1.34.89q8.55 8.62 17.08 17.22l9.28 9.32c1.94 2 2 3.86 0 5.8l-.66.66a3.56 3.56 0 0 1 -5.43 0c-4.32-4.31-8.61-8.63-12.92-13q-3.26-3.27-6.52-6.55a1.76 1.76 0 0 0 -2.18-.35 1.53 1.53 0 0 0 -.78 1.92 3.37 3.37 0 0 0 .88 1.23q9.48 9.56 19 19.08c1.09 1.09 1.8 2.32 1.23 3.87a5.8 5.8 0 0 1 -3.65 3.63 3.61 3.61 0 0 1 -3.8-1.2q-9.43-9.54-18.92-19a6.22 6.22 0 0 0 -.75-.7 1.66 1.66 0 0 0 -2.24.16 1.78 1.78 0 0 0 -.14 2.26 7.07 7.07 0 0 0 .7.75c6.23 6.26 12.46 12.54 18.72 18.77 1.24 1.24 2.07 2.63 1.3 4.3a5.59 5.59 0 0 1 -4.2 3.56 3.12 3.12 0 0 1 -2.86-1.11 8 8 0 0 0 -6.49-3.21z" fill="#38b449"/><g fill="#026937"><path d="m55.59 84.21a3.91 3.91 0 0 1 -1.35 2.42c-2.38 2.51-4.84 5-7.31 7.37a3.62 3.62 0 0 1 -5 .06 17.65 17.65 0 0 1 -1.42-1.45 3.6 3.6 0 0 1 .19-4.84c2.46-2.52 4.94-5 7.44-7.47a3.4 3.4 0 0 1 4.86-.09c1.11 1.05 2.93 2.5 2.59 4z"/><path d="m35.65 86.37c-2.18-.23-3.47-1.71-4.39-3.44-1.14-2.17.56-4 2.55-5.45a17.38 17.38 0 0 0 4.19-4.18c2.18-3.15 4.53-3.6 6.77-1.37.24.24.49.48.72.72a3.56 3.56 0 0 1 0 5.44c-2.33 2.36-4.69 4.7-7 7.06a3.57 3.57 0 0 1 -2.84 1.22z"/><path d="m71 104.54a45.93 45.93 0 0 1 -6.74 6.93 4.06 4.06 0 0 1 -2.19 1 3.58 3.58 0 0 1 -2.78-1c-.45-.43-.88-.87-1.29-1.33a3.49 3.49 0 0 1 .05-4.91c2.45-2.52 4.95-5 7.46-7.48a3.52 3.52 0 0 1 2.3-1 4.46 4.46 0 0 1 2.66 1.07c1.35.87 2.14 1.39 2.42 2.39a3.94 3.94 0 0 1 -1 3.34z"/><path d="m62.93 95.3c-2.38 2.52-4.84 5-7.31 7.37a3.49 3.49 0 0 1 -5.06.06c-.43-.39-.84-.81-1.23-1.24a3.51 3.51 0 0 1 0-5q3.63-3.7 7.32-7.36a3.49 3.49 0 0 1 5.21 0c1 1 2.2 1.92 2.12 3.58a6.14 6.14 0 0 1 -1.05 2.59z"/></g></svg>