<svg viewBox="0 0 20.06 20.11" xmlns="http://www.w3.org/2000/svg"><path d="m4.14 0a2.47 2.47 0 0 1 1.1.48l.13.11 2.71 2.71a1.89 1.89 0 0 1 .31 2.37 1.64 1.64 0 0 1 -.89.73 2 2 0 0 0 -1.22 1.09 1.69 1.69 0 0 0 -.08 1.13 6.63 6.63 0 0 0 1.5 2.64 9.23 9.23 0 0 0 2.85 2.27 2.52 2.52 0 0 0 1.49.35 1.8 1.8 0 0 0 1.53-1.12 2.05 2.05 0 0 1 .84-1.1 1.85 1.85 0 0 1 2.19.19c.55.5 1.07 1 1.6 1.57s1 .95 1.42 1.46a1.94 1.94 0 0 1 .09 2.35 4.47 4.47 0 0 1 -.34.4c-.53.54-1.08 1.06-1.6 1.6a2.76 2.76 0 0 1 -2 .87 6.62 6.62 0 0 1 -2.42-.41 16.34 16.34 0 0 1 -4.26-2.28 27.66 27.66 0 0 1 -5.75-5.53 17.5 17.5 0 0 1 -2.91-5.11 6.65 6.65 0 0 1 -.43-2.54 2.8 2.8 0 0 1 .86-2c.48-.45 1-.92 1.4-1.4a2.44 2.44 0 0 1 1.45-.83z" fill="#006837"/></svg>