<svg viewBox="0 0 442.39 442.15" xmlns="http://www.w3.org/2000/svg"><path d="m1.4 198.89a245.35 245.35 0 0 1 22.37-76.89 227 227 0 0 1 92.09-95.13 226.11 226.11 0 0 1 67.43-23.3 229.59 229.59 0 0 1 38.21-3.57 218.41 218.41 0 0 1 45.95 5 234.5 234.5 0 0 1 46.88 15.91c58.06 27.18 91.14 77.1 93 80 20.23 31.15 31.86 68.09 34.67 110.7 3.11 47.94-10.28 92.18-36.93 132.21-5.51 8.27-11.9 16-18.41 24.64-16.25-60.19-52.66-100.68-110.11-122.84 17.76-11.73 31-27 39.3-46.2a100.28 100.28 0 0 0 6.64-59.51c-3.84-20.67-13.32-38.4-27.93-53.45-39.38-40.58-105.89-40.35-146.25-.35s-44.31 118.89 17.44 159.72q-85.6 32.92-109.52 122.06a226.36 226.36 0 0 1 -39.08-62.26 231.72 231.72 0 0 1 -13.29-45.58 212.87 212.87 0 0 1 -3.52-26 199.9 199.9 0 0 1 1.06-35.16z" fill="#38b449"/><g fill="#006837"><path d="m222.61 262.65c63.37.7 117.9 41.82 136.24 103.48 2.08 7 3.12 14.29 4.39 21.49a4.85 4.85 0 0 1 -1.49 3.87c-33.59 27.31-71.75 44.07-114.85 49.1-48.61 5.67-94.07-4.16-136.34-28.48-10.41-6-19.87-13.65-29.67-20.69a4.37 4.37 0 0 1 -1.48-3.48q8.59-61.94 59.34-98.63c24.77-17.89 52.71-26.31 83.86-26.66z"/><path d="m221.28 81.73c42.41-.14 77.1 34.54 77.08 77.07a77 77 0 1 1 -77.08-77.07z"/></g></svg>