<svg viewBox="0 0 123.54 123.54" xmlns="http://www.w3.org/2000/svg"><circle cx="61.77" cy="61.77" fill="#e7eee7" r="61.77"/><path d="m111.3 60.15c-.62-9.56-3.23-17.85-7.77-24.85a54.76 54.76 0 0 0 -20.87-17.95 52.9 52.9 0 0 0 -10.51-3.57 49.63 49.63 0 0 0 -10.31-1.11 51.83 51.83 0 0 0 -8.58.8 51.06 51.06 0 0 0 -15.13 5.23 51 51 0 0 0 -20.66 21.3 55.31 55.31 0 0 0 -5 17.26 45.84 45.84 0 0 0 -.24 7.9 51.09 51.09 0 0 0 .77 5.84 52.08 52.08 0 0 0 3 10.23 50.9 50.9 0 0 0 8.76 14c3.59-13.36 11.77-22.46 24.58-27.39-13.87-9.17-12.96-26.9-3.93-35.84s24-9 32.82.08a22.91 22.91 0 0 1 6.27 12 22.57 22.57 0 0 1 -1.5 13.34 23.54 23.54 0 0 1 -8.82 10.37c12.89 5 21.06 14 24.69 27.56 1.47-1.95 2.9-3.68 4.13-5.53a47.06 47.06 0 0 0 8.3-29.67z" fill="#38b449"/><g fill="#006837"><path d="m62.09 71.61a32.33 32.33 0 0 0 -32.09 28.11 1 1 0 0 0 .34.78 79.35 79.35 0 0 0 6.66 4.64 48.6 48.6 0 0 0 30.59 6.39 49.2 49.2 0 0 0 25.77-11 1.08 1.08 0 0 0 .33-.86 41.34 41.34 0 0 0 -1-4.83 32.06 32.06 0 0 0 -30.6-23.23z"/><path d="m61.79 31a17.29 17.29 0 1 0 17.29 17.3 17.29 17.29 0 0 0 -17.29-17.3z"/></g></svg>