<svg viewBox="0 0 547.13 259.68" xmlns="http://www.w3.org/2000/svg"><path d="m371.47 103.55q-21.34-43.55-42.68-87.11a27.49 27.49 0 0 0 -50.34 0l-81.2 162.71-80.5-162.71a26.61 26.61 0 0 0 -47.69 0l-46.06 88.75h-23c.18 5 .52 10.31 1.05 15.85s1.23 10.89 2 15.9q1.61 8.59 3.22 17.21c17.71.14 31.11.15 38.12.35a16.33 16.33 0 0 0 8.22-1.65 15.49 15.49 0 0 0 6.58-6.57q16.42-32.06 32.87-64.1 40.19 81.36 80.36 162.71a28.09 28.09 0 0 0 49.48 0l83.83-163.67q7.38 16.11 14.77 32.21c2 4.53 11.81 25.78 15.18 30.83s5.29 11.51 18.08 11.51l186.44.4c1.86-8.22 3.53-17.27 4.79-27.09 1.17-9.1 1.83-17.65 2.14-25.53z" fill="#38b449" opacity=".24"/></svg>