<svg viewBox="0 0 53.8 53.81" xmlns="http://www.w3.org/2000/svg"><g fill="#fff"><path d="m1.17 53.81a2 2 0 0 1 -1.17-2.12c0-4 0-8 0-12.08a5 5 0 0 1 3.75-5.13.7.7 0 0 1 .53.15 8.93 8.93 0 0 0 6 2.06 8.63 8.63 0 0 0 5.44-2 .62.62 0 0 1 .79-.11c.2.11.42.18.63.27a2.42 2.42 0 0 1 1.7 1.92 26 26 0 0 0 -2.36 1.63 7.49 7.49 0 0 0 -2.69 5.71v8.24a11.11 11.11 0 0 0 .23 1.5z"/><path d="m39.83 53.81c.08-.77.22-1.53.23-2.29 0-2.38 0-4.76 0-7.13a7.89 7.89 0 0 0 -4.79-7.39l-.27-.16c.22-1.58 1.49-2 2.69-2.41.08 0 .24.08.34.15a8.93 8.93 0 0 0 11.54 0 .7.7 0 0 1 .58-.1 5 5 0 0 1 3.61 4s0 0 .06.08v14.09a2.49 2.49 0 0 1 -1.15 1.16z"/><path d="m18.08 53.81a1.91 1.91 0 0 1 -1.19-2c0-2.38 0-4.76 0-7.14a5 5 0 0 1 3.74-5.08.73.73 0 0 1 .54.14 8.88 8.88 0 0 0 6.38 2 8.44 8.44 0 0 0 5-2 .79.79 0 0 1 .89-.12 5 5 0 0 1 3.4 3.86 6 6 0 0 1 .08 1.2v7.09a1.91 1.91 0 0 1 -1.2 2z"/><path d="m26.91 4.7c1-1 1.82-1.9 2.73-2.77a6.84 6.84 0 0 1 11.36 3.25 6.65 6.65 0 0 1 -1.81 6.57c-1.47 1.5-3 3-4.45 4.46l-6.5 6.5a1.65 1.65 0 0 1 -2.71 0c-3.65-3.65-7.32-7.29-10.95-11a6.57 6.57 0 0 1 -1.73-6.71 6.52 6.52 0 0 1 5.15-4.82 6.59 6.59 0 0 1 6.23 1.82c.9.84 1.77 1.75 2.68 2.7z"/><path d="m43.74 33.54a5.79 5.79 0 1 1 5.83-5.77 5.77 5.77 0 0 1 -5.83 5.77z"/><path d="m15.8 27.79a5.79 5.79 0 1 1 -5.8-5.79 5.75 5.75 0 0 1 5.8 5.79z"/><path d="m26.9 38.6a5.79 5.79 0 1 1 5.79-5.76 5.76 5.76 0 0 1 -5.79 5.76z"/><path d="m45.6 3.1a1.4 1.4 0 0 1 .8-1.19c1.15-.6 2.3-1.19 3.47-1.74a1.54 1.54 0 0 1 2.06.7 1.53 1.53 0 0 1 -.63 2.13c-1.16.62-2.33 1.22-3.52 1.76a1.57 1.57 0 0 1 -2.18-1.66z"/><path d="m8.22 3.28a1.52 1.52 0 0 1 -2.07 1.46c-1.27-.55-2.5-1.18-3.71-1.84a1.5 1.5 0 0 1 -.56-2 1.52 1.52 0 0 1 2-.75c1.2.55 2.41 1.17 3.62 1.85a1.43 1.43 0 0 1 .72 1.28z"/><path d="m45.6 13.62a1.58 1.58 0 0 1 2.15-1.62c1.22.54 2.4 1.15 3.57 1.78a1.56 1.56 0 0 1 -1.38 2.79c-1.22-.56-2.41-1.17-3.6-1.8a1.38 1.38 0 0 1 -.74-1.15z"/><path d="m8.22 13.6a1.43 1.43 0 0 1 -.8 1.17c-1.15.6-2.3 1.23-3.42 1.74a1.56 1.56 0 0 1 -2.07-.7 1.54 1.54 0 0 1 .68-2.11c1.08-.59 2.22-1.17 3.39-1.7a1.58 1.58 0 0 1 2.22 1.6z"/></g></svg>