<svg viewBox="0 0 211.73 223.65" xmlns="http://www.w3.org/2000/svg"><path d="m5.44 214.26a23 23 0 0 1 -3.82-10.26c-2.48-18.42-7.3-77.45 31.7-132.27 28.89-40.63 67-58 83.92-64.49a22.56 22.56 0 0 1 2.41-.78 190.35 190.35 0 0 1 70.56-5.24 24.34 24.34 0 0 1 21.52 24.25v166a22.38 22.38 0 0 1 -.16 2.83 34 34 0 0 1 -8 18 34.43 34.43 0 0 1 -20.79 11.13 22.68 22.68 0 0 1 -3.3.22l-155.61-.07a22.82 22.82 0 0 1 -6.58-.9 22.42 22.42 0 0 1 -9.79-6 21.12 21.12 0 0 1 -2.06-2.42z" fill="#36b44a"/><path d="m195.43 104.34c-.89 2.83-2.9 4.83-4.93 6.85q-33.39 33.32-66.73 66.67c-2.73 2.74-5.82 4-9.56 2.76a10.13 10.13 0 0 1 -3.81-2.43q-34.66-34.53-69.25-69.14c-3.87-3.88-3.85-8.9-.06-12.81 1.78-1.83 3.55-3.69 5.5-5.34a8.37 8.37 0 0 1 11.08.16c.51.44 1 .91 1.45 1.38l56.31 56.26.4.44a1.46 1.46 0 0 0 2.23-.14.86.86 0 0 1 .13-.14q28.4-28.43 56.81-56.86c3.53-3.53 8.41-4.23 11.72-1.32s7.07 5.74 8.67 10.25a5.88 5.88 0 0 1 .25 1.63 6.2 6.2 0 0 1 -.21 1.78z" fill="#fff" stroke="#fff" stroke-miterlimit="10" stroke-width="10"/></svg>