<svg viewBox="0 0 442.67 442.5" xmlns="http://www.w3.org/2000/svg"><path d="m114.14 370.78c-10.07 9-19.69 18.1-29.88 26.52-9.23 7.63-19.52 13.64-31.62 15.78-19.64 3.47-41.12-14-40.46-33.08.29-8.48 4-15.57 10-21.33 4.23-4.13 9.13-7.57 14-11.57-.87-.46-2-.93-3-1.59-7.69-5-16.3-9.07-22.84-15.29-15.08-14.33-13.27-36 2.86-49.25 1.38-1.14 2.18-3.76 2.18-5.7.12-51.26.2-102.52 0-153.78a26.52 26.52 0 0 1 5.88-17.55c12.74-16.47 25.15-33.24 37.51-50.04a13.38 13.38 0 0 0 2.39-7.25c.23-12.37.08-24.74.11-37.11.02-6.92 2.49-9.54 9.38-9.54q66.84 0 133.67 0c6.89 0 9.4 2.56 9.44 9.5.06 11.92.16 23.84-.07 35.76a15.36 15.36 0 0 0 3.47 10.17c13.08 17.19 25.94 34.55 39 51.76a16.48 16.48 0 0 1 3.56 10.69c-.16 13.7-.06 27.39-.06 41.66 20.32 1.07 37.46 9.88 53.43 21.54l1.33-.52c-.73-5.93-.74-12.06-2.33-17.75-3.44-12.3-7.75-24.36-11.58-36.55-6.64-21.12-4.56-42.85 5.95-60.9l13.08 6.52c-1.77 4.65-3.61 9-5.07 13.46-4 12.18-3.29 24.33.62 36.42 4.12 12.73 8.2 25.47 12.11 38.26 1 3.22 1.29 6.65 1.95 10.27 4.5-1.93 8.77-4 13.18-5.62 29.74-11.24 57.45-3.2 76.46 22.32 12.87 17.26 19.32 37.13 22.35 58.16 4.82 33.47-1.62 64.58-20.48 92.87a111.25 111.25 0 0 1 -33.61 32.83c7.39 5.84 15 11.15 21.74 17.4a89.87 89.87 0 0 1 15.09 17.46c6.83 10.83 3.45 21.32-7.91 27.37-10.48 5.58-22.05 7.05-33.64 8.06-30.39 2.63-60.73 1-91-1.74-33.69-3.07-67.18-7.47-100.13-15.27-17.11-4.06-33.89-9.27-49.39-17.84-12.36-6.83-22.22-16-26.29-30.12-.29-1-.45-2-.7-3s-.49-1.72-.68-2.39zm122.11-60.17-19.13 65.79-14.59-4.28c6.39-22.12 12.66-43.78 19-65.72-16-5-31.76-9.42-48.3-9.74-15.49-.3-27.06 6.52-32.63 21a208.49 208.49 0 0 0 -10.87 36.64c-3.38 18.18 2.45 29.05 18.63 38.16a141.6 141.6 0 0 0 19.07 8.63c21.54 8.17 44.07 12.38 66.72 16 11 1.75 22 3.17 33.33 4.78 2.83-9.62 5.54-18.8 8.35-28.35l14.54 4.27c-2.48 8.67-4.85 16.93-7.27 25.37 1.3.22 2.31.43 3.33.54 28.64 2.94 57.35 4.66 86.11 2.91 11.05-.67 22.11-2.9 32.91-5.49 7.65-1.83 8.23-4.87 3.29-11.05-9.32-11.69-21.55-19.93-34.06-28.62-2.33 7.83-4.52 15.16-6.79 22.82l-14.54-4.27c2.22-7.66 4.06-14.86 6.46-21.88 1.32-3.88.86-6-3-8-17.76-9.38-35.06-19.67-53.07-28.51-22.04-10.9-44.59-20.61-67.49-31zm-194.39-22.26c-5.92 1.08-10.78 1.34-15.18 2.9-11 3.88-14.83 16.88-7.47 25.91a39 39 0 0 0 12.66 10.29c9.18 4.45 18.89 7.85 28.48 11.45 3.77 1.41 6.25 3.63 6.22 7.7 0 3.87-2.43 6.11-6 7.45-5 1.88-10.3 3.38-14.75 6.2-5.56 3.52-11.09 7.61-15.35 12.56-5.28 6.12-4.1 13.26 2 18.63 7.22 6.34 15.35 9 24.65 4.57a93 93 0 0 0 8.71-4.5c12.91-7.95 23.54-18.56 34.33-29.07 10.29-10 17.85-21.33 20.19-35.74.56-3.48 2.12-7 1.76-10.41-2.11-20.29-6.33-40.29-14.59-59.08a67.55 67.55 0 0 0 -10.4-16.48c-5.38-6.26-18.17-7.25-25.31-3-5.94 3.57-8.38 11.24-4.48 20.39 3.5 8.23 8.69 15.79 13.52 23.4 2.14 3.37 4 6.45 1.6 10.21s-6 4-10.21 3c-10.39-2.36-20.87-4.38-30.38-6.38zm164.3-222.23c-12.63 16.87-24.81 33-36.8 49.33-1.09 1.49-1.36 3.86-1.36 5.82q-.1 77.5-.05 155v5.2h15.66c0-.09.29-.35.28-.6 0-1.64-.07-3.27-.17-4.9-1.62-25.61 2.66-50.16 13.95-73.24 9.41-19.24 22.91-34.32 44.23-40.92 1.16-.35 2.35-2.78 2.38-4.26q.28-18.54 0-37.07a11.38 11.38 0 0 0 -2-6.07c-5.64-7.86-11.52-15.54-17.33-23.28zm-148.96 208.74c-1.75-4.66-3.89-9.27-5.22-14.09-5.51-20 4-37 22.86-40.09 15.36-2.52 28.61 1.55 38.08 14.86 8.08 11.34 12.74 24.16 16.35 37.46 2.16 7.92 3.85 16 5.66 23.54 4.7-3.33 9.06-7 13.93-9.68 2.89-1.61 3.93-3.13 3.91-6.41-.13-30.83-.08-61.65-.08-92.48v-4.57h-121.69v90.27zm-26.2-107.41h121.4v-45.11h-121.4zm159.59-106a17.34 17.34 0 0 0 -1.76-.31c-37.85 0-75.69-.06-113.54.07a6.86 6.86 0 0 0 -4.57 2.62c-10.09 13.17-19.96 26.38-29.87 39.62-.66.88-1.19 1.86-1.83 2.87a4.88 4.88 0 0 0 1.12.43q57 0 114 0a6.32 6.32 0 0 0 4.21-2.4c7.55-9.8 14.92-19.72 22.33-29.61 3.18-4.3 6.32-8.57 9.86-13.3zm89.41 148.42c8.08 12.53 19.06 19 33.39 18.91 14.11-.12 24.9-6.66 32.75-19l-13.19-7.57c-5.1 7.46-11.62 11.32-20.19 11.27s-14.85-4.34-19.7-11.23z" fill="#006837"/><path d="m354.61 137.35c-13.48-.48-24-6.17-31.78-17.17-2.74-3.91-2.63-7.55 0-11.55 14.91-22.73 49.17-22.63 63.83.21 2.48 3.86 2.6 7.4 0 11.17-7.8 11.22-18.5 16.92-32.05 17.34zm-16.58-23c8.42 10.3 25.06 10.29 33.3 0a22.15 22.15 0 0 0 -33.33-.01z" fill="#39b54a"/><path d="m236.25 310.61c22.9 10.42 45.45 20.1 67.46 30.91 18 8.84 35.31 19.13 53.07 28.51 3.89 2.05 4.35 4.16 3 8-2.4 7-4.24 14.22-6.46 21.88l14.55 4.27c2.27-7.66 4.46-15 6.79-22.82 12.51 8.69 24.74 16.93 34.06 28.62 4.94 6.18 4.36 9.22-3.29 11.05-10.8 2.59-21.86 4.82-32.91 5.49-28.76 1.75-57.47 0-86.11-2.91-1-.11-2-.32-3.33-.54 2.42-8.44 4.79-16.7 7.27-25.37l-14.54-4.27c-2.81 9.55-5.52 18.73-8.35 28.35-11.29-1.61-22.33-3-33.33-4.78-22.65-3.61-45.18-7.82-66.72-16a141.6 141.6 0 0 1 -19.07-8.63c-16.18-9.11-22-20-18.63-38.16a208.49 208.49 0 0 1 10.87-36.64c5.57-14.44 17.14-21.26 32.63-21 16.54.32 32.28 4.7 48.3 9.74-6.35 21.94-12.62 43.6-19 65.72l14.59 4.28z" fill="#39b54a"/><path d="m41.86 288.35c9.51 2 20 4 30.38 6.46 4.24 1 7.76.79 10.21-3s.54-6.84-1.6-10.21c-4.83-7.61-10-15.17-13.52-23.4-3.9-9.15-1.46-16.82 4.48-20.39 7.14-4.29 19.93-3.3 25.31 3a67.55 67.55 0 0 1 10.4 16.48c8.26 18.71 12.48 38.71 14.61 59 .36 3.37-1.2 6.93-1.76 10.41-2.34 14.41-9.9 25.7-20.19 35.74-10.79 10.56-21.42 21.12-34.33 29.07a93 93 0 0 1 -8.71 4.5c-9.3 4.46-17.43 1.77-24.65-4.57-6.12-5.37-7.3-12.51-2-18.63 4.26-4.95 9.79-9 15.35-12.56 4.45-2.82 9.75-4.32 14.75-6.2 3.57-1.34 6-3.58 6-7.45 0-4.07-2.45-6.29-6.22-7.7-9.59-3.6-19.3-7-28.48-11.45a39 39 0 0 1 -12.66-10.29c-7.36-9-3.5-22 7.47-25.91 4.38-1.56 9.24-1.82 15.16-2.9z" fill="#006837"/><path d="m206.16 66.12 18.8 25c5.81 7.74 11.69 15.42 17.33 23.28a11.38 11.38 0 0 1 2 6.07q.28 18.53 0 37.07c0 1.48-1.22 3.91-2.38 4.26-21.32 6.6-34.82 21.68-44.23 40.92-11.29 23.08-15.57 47.63-13.95 73.24.1 1.63.15 3.26.17 4.9 0 .25-.23.51-.28.6h-15.62v-5.2q0-77.5.05-155c0-2 .27-4.33 1.36-5.82 11.94-16.29 24.12-32.44 36.75-49.32z" fill="#006837"/><path d="m57.2 274.86-26.2-1.19v-90.27h121.69v4.52c0 30.83-.05 61.65.08 92.48 0 3.28-1 4.8-3.91 6.41-4.87 2.72-9.23 6.35-13.93 9.68-1.81-7.58-3.5-15.62-5.66-23.54-3.61-13.25-8.28-26.07-16.35-37.41-9.47-13.31-22.72-17.38-38.08-14.86-18.84 3.09-28.37 20.12-22.84 40.09 1.31 4.82 3.45 9.43 5.2 14.09z" fill="#39b54a"/><path d="m31 167.45v-45.11h121.4v45.11z" fill="#006837"/><path d="m190.54 61.44c-3.53 4.73-6.68 9-9.87 13.25-7.41 9.89-14.78 19.81-22.33 29.61a6.32 6.32 0 0 1 -4.21 2.4q-57 .18-114 0a4.88 4.88 0 0 1 -1.12-.43c.64-1 1.17-2 1.83-2.87 9.92-13.19 19.79-26.4 29.83-39.58a6.86 6.86 0 0 1 4.57-2.62c37.85-.13 75.69-.09 113.54-.07a17.34 17.34 0 0 1 1.76.31z" fill="#39b54a"/><g fill="#fff"><path d="m280 209.87 13-7.58c4.85 6.89 11.14 11.19 19.7 11.23s15.09-3.81 20.19-11.27l13.19 7.57c-7.85 12.3-18.64 18.84-32.75 19-14.33.09-25.33-6.42-33.33-18.95z"/><path d="m338 114.34a22.15 22.15 0 0 1 33.3 0c-8.21 10.29-24.85 10.3-33.3 0z"/></g></svg>