<svg viewBox="0 0 73.78 71.81" xmlns="http://www.w3.org/2000/svg"><g fill="#fff"><path d="m73.78 38.15c-.21 1.44-.39 2.88-.63 4.32-.15.93-.38 1.85-.62 2.76a.7.7 0 0 1 -.49.43c-5.3 0-10.6 0-15.9 0 0 0-.09 0-.18-.08a78.87 78.87 0 0 0 .04-19.58h.73 15.06c.53 0 .78.13.86.68.33 2 .69 4.08 1 6.12l.15.74z"/><path d="m45 71.81c5.8-5.61 8.3-12.81 10-20.43.06-.25.12-.49.18-.75h15.53c-.71 1.36-1.32 2.65-2 3.87a36.76 36.76 0 0 1 -22.71 17.05 5.89 5.89 0 0 0 -.7.26z"/><path d="m28.44 71.81c-1.14-.36-2.29-.68-3.42-1.08a36.8 36.8 0 0 1 -21.66-19.59c-.06-.14-.11-.28-.19-.49h15.4c.37 1.49.7 3 1.12 4.51a39.31 39.31 0 0 0 6.31 13.62c.82 1.07 1.8 2 2.7 3z"/><path d="m51 26.07a72.72 72.72 0 0 1 0 19.55h-28.2a72.72 72.72 0 0 1 0-19.55z"/><path d="m50.12 21.06h-26.56c.61-2.06 1.13-4.06 1.79-6.06a29.82 29.82 0 0 1 5.09-9.73 11.78 11.78 0 0 1 3.66-3.13 5.74 5.74 0 0 1 5.79.11 13.71 13.71 0 0 1 4.52 4.41 39.37 39.37 0 0 1 5.38 13c.11.4.21.85.33 1.4z"/><path d="m23.65 50.63h26.49c-.33 1.29-.61 2.54-1 3.78a32.73 32.73 0 0 1 -5.35 11.37 17.09 17.09 0 0 1 -3.53 3.37 5.54 5.54 0 0 1 -6.93-.09 17.05 17.05 0 0 1 -3.33-3.29c-3.46-4.46-5.09-9.7-6.35-15.14z"/><path d="m17.82 26.06a79.19 79.19 0 0 0 0 19.58c-.27 0-.5 0-.72 0-5 0-10 0-15 0-.52 0-.75-.11-.89-.66a36.69 36.69 0 0 1 0-18.44c.11-.41.23-.6.7-.6h15.51a2.37 2.37 0 0 1 .4.12z"/><path d="m70.65 21.06h-15.45c-1.73-7.75-4.13-15.19-10-21 2.53-.21 10.91 3.87 15.1 7.37a37.06 37.06 0 0 1 10.35 13.63z"/><path d="m28.6 0c-5.89 5.86-8.29 13.29-10 21.05h-15.38c2.27-8.57 16.21-20.14 25.38-21.05z"/></g></svg>