<svg viewBox="0 0 518.7 305.15" xmlns="http://www.w3.org/2000/svg"><g fill="#39b54a"><path d="m146.75 305.15c-5-.5-10-.94-15-1.5-31.93-3.54-58.15-18.55-80.75-40.49-21.06-20.43-37-44.54-49.85-70.77-.43-.89-.7-1.85-1.14-3a255.15 255.15 0 0 1 69.88-27.76c18.17 74 71 111.41 140 132.9-11 2.56-21.93 5.52-33 7.54-8.92 1.63-18 2.13-27.08 3.13z"/><path d="m368.7 305.15c-9-1-18.13-1.51-27-3.12-11.06-2-22-4.93-32.92-7.45v-1.38c1.6-.49 3.19-1 4.8-1.48 29.81-9 57.52-21.94 81.59-42.06 24.23-20.24 40.59-45.6 49.9-75.62 1.23-4 2.41-8 4-13.34 13.91 4.89 27.63 9.28 41 14.57 9.8 3.88 19.13 8.94 28.67 13.48v2c-1 1.68-2.14 3.31-3 5.05-12 23.71-26.6 45.65-45.43 64.58-22.93 23-49.49 39.25-82.51 43-5.32.61-10.66 1.13-16 1.7z"/><path d="m259.58 0c32 30.82 58 65 68.15 108.8 6 25.82 3 51.17-6.57 75.85-13.2 34-35.23 61.81-61.84 87.35-3.05-2.93-6-5.6-8.76-8.44-22.92-23.51-42.17-49.46-53.85-80.49-12.71-33.81-11.58-67.28 2.34-100.4 13.23-31.46 33.77-57.73 58.37-81.06.48-.45 1.05-.79 2.16-1.61z"/></g><path d="m171.16 70.61c-29.16 70.39-9.01 131.57 33.93 189.39-6-2.3-12.13-4.38-18-6.94-23.51-10.18-44.62-23.71-61.11-43.75-16.79-20.41-25.46-44.24-29.47-69.92-4.34-27.76-2.91-55.47 2-83 .24-1.31.66-2.58 1-3.82 11.28-1.5 53.98 9.22 71.65 18.04z" fill="#006837"/><path d="m312 260.1c44.28-57.81 64.45-119 35.26-189.66a247.9 247.9 0 0 1 71.74-18.65 245.36 245.36 0 0 1 5.5 51.62c.24 28-3.82 55.06-15.9 80.61-11.64 24.63-29.88 43.22-53.2 56.64-11.92 6.85-24.9 11.88-37.43 17.68a50.91 50.91 0 0 1 -5.97 1.76z" fill="#006837"/></svg>